<svg width="17" height="17" viewBox="0 0 17 17" fill="none" xmlns="http://www.w3.org/2000/svg">
<path d="M4.25 4.25008C4.25 4.06222 4.32463 3.88205 4.45747 3.74921C4.5903 3.61638 4.77047 3.54175 4.95833 3.54175H12.0417C12.2295 3.54175 12.4097 3.61638 12.5425 3.74921C12.6754 3.88205 12.75 4.06222 12.75 4.25008C12.75 4.43794 12.6754 4.61811 12.5425 4.75095C12.4097 4.88379 12.2295 4.95841 12.0417 4.95841H4.95833C4.77047 4.95841 4.5903 4.88379 4.45747 4.75095C4.32463 4.61811 4.25 4.43794 4.25 4.25008ZM4.25 7.08341C4.25 6.89555 4.32463 6.71539 4.45747 6.58255C4.5903 6.44971 4.77047 6.37508 4.95833 6.37508H12.0417C12.2295 6.37508 12.4097 6.44971 12.5425 6.58255C12.6754 6.71539 12.75 6.89555 12.75 7.08341C12.75 7.27128 12.6754 7.45144 12.5425 7.58428C12.4097 7.71712 12.2295 7.79175 12.0417 7.79175H4.95833C4.77047 7.79175 4.5903 7.71712 4.45747 7.58428C4.32463 7.45144 4.25 7.27128 4.25 7.08341ZM4.95833 9.20841C4.77047 9.20841 4.5903 9.28304 4.45747 9.41588C4.32463 9.54872 4.25 9.72889 4.25 9.91675C4.25 10.1046 4.32463 10.2848 4.45747 10.4176C4.5903 10.5505 4.77047 10.6251 4.95833 10.6251H12.0417C12.2295 10.6251 12.4097 10.5505 12.5425 10.4176C12.6754 10.2848 12.75 10.1046 12.75 9.91675C12.75 9.72889 12.6754 9.54872 12.5425 9.41588C12.4097 9.28304 12.2295 9.20841 12.0417 9.20841H4.95833ZM4.25 12.7501C4.25 12.5622 4.32463 12.3821 4.45747 12.2492C4.5903 12.1164 4.77047 12.0417 4.95833 12.0417H7.79167C7.97953 12.0417 8.1597 12.1164 8.29253 12.2492C8.42537 12.3821 8.5 12.5622 8.5 12.7501C8.5 12.9379 8.42537 13.1181 8.29253 13.2509C8.1597 13.3838 7.97953 13.4584 7.79167 13.4584H4.95833C4.77047 13.4584 4.5903 13.3838 4.45747 13.2509C4.32463 13.1181 4.25 12.9379 4.25 12.7501Z" fill="#003577"/>
<path fill-rule="evenodd" clip-rule="evenodd" d="M1.4165 2.83337C1.4165 2.26979 1.64039 1.72929 2.0389 1.33077C2.43742 0.932257 2.97792 0.708374 3.5415 0.708374H13.4582C14.0218 0.708374 14.5623 0.932257 14.9608 1.33077C15.3593 1.72929 15.5832 2.26979 15.5832 2.83337V14.1667C15.5832 14.7303 15.3593 15.2708 14.9608 15.6693C14.5623 16.0678 14.0218 16.2917 13.4582 16.2917H3.5415C2.97792 16.2917 2.43742 16.0678 2.0389 15.6693C1.64039 15.2708 1.4165 14.7303 1.4165 14.1667V2.83337ZM3.5415 2.12504H13.4582C13.646 2.12504 13.8262 2.19967 13.959 2.33251C14.0919 2.46534 14.1665 2.64551 14.1665 2.83337V14.1667C14.1665 14.3546 14.0919 14.5347 13.959 14.6676C13.8262 14.8004 13.646 14.875 13.4582 14.875H3.5415C3.35364 14.875 3.17347 14.8004 3.04064 14.6676C2.9078 14.5347 2.83317 14.3546 2.83317 14.1667V2.83337C2.83317 2.64551 2.9078 2.46534 3.04064 2.33251C3.17347 2.19967 3.35364 2.12504 3.5415 2.12504Z" fill="#003577"/>
</svg>
