<svg width="50" height="50" viewBox="0 0 50 50" fill="none" xmlns="http://www.w3.org/2000/svg">
<path d="M4.62477 4.62505C4.36015 4.88961 4.19926 5.24035 4.17135 5.61349C4.14344 5.98663 4.25036 6.3574 4.47268 6.65838L4.62477 6.83338L13.0289 15.2396C8.93108 18.1118 6.00578 22.3647 4.78935 27.2188C4.69556 27.6184 4.76276 28.0388 4.97645 28.3893C5.19013 28.7397 5.53312 28.992 5.9313 29.0916C6.32948 29.1912 6.75087 29.1302 7.10439 28.9216C7.45792 28.7131 7.71519 28.3738 7.8206 27.9771C8.90165 23.6688 11.5641 19.9249 15.2789 17.4896L19.0498 21.2605C17.5435 22.8344 16.7135 24.9356 16.7375 27.1141C16.7616 29.2925 17.6377 31.3749 19.1783 32.9152C20.7189 34.4556 22.8015 35.3314 24.9799 35.355C27.1583 35.3786 29.2594 34.5483 30.8331 33.0417L43.1643 45.375C43.4431 45.6546 43.8175 45.8183 44.212 45.8331C44.6066 45.8479 44.9921 45.7129 45.2911 45.455C45.5901 45.1972 45.7804 44.8357 45.8238 44.4433C45.8671 44.0508 45.7603 43.6565 45.5248 43.3396L45.3727 43.1646L32.6373 30.4271L32.6393 30.423L18.1602 15.9521L18.1643 15.948L15.8039 13.5938L6.8331 4.62505C6.54013 4.33244 6.143 4.16809 5.72893 4.16809C5.31487 4.16809 4.91774 4.33244 4.62477 4.62505ZM24.9998 11.4584C22.9164 11.4584 20.8956 11.7667 18.981 12.3438L21.5581 14.9188C26.0155 14.0362 30.6416 14.9002 34.4799 17.3322C38.3183 19.7642 41.0753 23.5781 42.181 27.9855C42.2889 28.3791 42.5466 28.7148 42.8989 28.9209C43.2512 29.127 43.6701 29.1871 44.0661 29.0883C44.4621 28.9895 44.8037 28.7397 45.0179 28.3922C45.2321 28.0448 45.3019 27.6274 45.2123 27.2292C44.0825 22.7239 41.4801 18.7252 37.8181 15.8679C34.1561 13.0106 29.6445 11.4587 24.9998 11.4584ZM25.406 18.7709L33.3248 26.6875C33.2223 24.6207 32.3551 22.6657 30.8916 21.2026C29.4281 19.7395 27.4729 18.8728 25.406 18.7709Z" fill="#00434C"/>
</svg>
