<svg width="50" height="53" viewBox="0 0 50 53" fill="none" xmlns="http://www.w3.org/2000/svg">
<path d="M50 37.5055C49.9975 44.6828 44.954 50.6815 38.218 52.154L36.623 47.369C39.633 46.8778 42.1912 45.0428 43.6622 42.5H37.5C34.7385 42.5 32.5 40.2615 32.5 37.5V27.5C32.5 24.7385 34.7385 22.5 37.5 22.5H44.8453C43.615 12.6342 35.199 5 25 5C14.801 5 6.38498 12.6342 5.15473 22.5H12.5C15.2614 22.5 17.5 24.7385 17.5 27.5V37.5C17.5 40.2615 15.2614 42.5 12.5 42.5H5C2.23857 42.5 0 40.2615 0 37.5V25C0 11.1929 11.1929 0 25 0C38.807 0 50 11.1929 50 25V27.4968V27.5V37.5V37.5055Z" fill="#00434C"/>
</svg>
