<svg width="50" height="46" viewBox="0 0 50 46" fill="none" xmlns="http://www.w3.org/2000/svg">
<path d="M2.27273 17.8178H9.09091V45.0906H2.27273C1.01755 45.0906 0 44.0731 0 42.8178V20.0905C0 18.8353 1.01755 17.8178 2.27273 17.8178ZM14.302 14.8794L28.8486 0.332848C29.2484 -0.0670385 29.8816 -0.112016 30.3339 0.22728L32.2716 1.68055C33.3732 2.50673 33.8695 3.91448 33.5298 5.24887L30.9086 15.545H45.4545C47.965 15.545 50 17.5801 50 20.0905V24.8731C50 25.4669 49.8836 26.0549 49.6577 26.6037L42.625 43.6831C42.2743 44.5346 41.4443 45.0906 40.5234 45.0906H15.9091C14.6539 45.0906 13.6364 44.0731 13.6364 42.8178V16.4864C13.6364 15.8837 13.8758 15.3056 14.302 14.8794Z" fill="#00434C"/>
</svg>
