<svg width="74" height="87" viewBox="0 0 74 87" fill="none" xmlns="http://www.w3.org/2000/svg">
<path d="M51.8322 18.2793L47.341 19.884L45.4137 14.0148C41.873 3.19229 30.5883 -2.55475 20.2192 1.09929C9.85013 4.75332 4.32984 16.6224 7.8705 27.4449L9.7978 33.3141L5.28914 34.9274C3.5699 35.5943 2.17376 36.898 1.39092 38.5676C0.608084 40.2372 0.498762 42.1443 1.08569 43.8924L13.5826 82.081C13.8421 82.9464 14.2728 83.7508 14.8492 84.4464C15.4256 85.1421 16.136 85.7148 16.9381 86.1305C17.7402 86.5462 18.6177 86.7964 19.5184 86.8663C20.4192 86.9362 21.3248 86.8243 22.1814 86.5373L68.7245 69.8893C70.4665 69.2236 71.8824 67.9083 72.6745 66.2201C73.4665 64.5318 73.573 62.6022 72.9715 60.837L60.4659 22.6485C60.1997 21.7855 59.7625 20.985 59.1802 20.2947C58.5979 19.6044 57.8825 19.0385 57.0768 18.6307C56.271 18.223 55.3913 17.9817 54.4903 17.9213C53.5892 17.861 52.6852 17.9827 51.8322 18.2793ZM16.3559 24.3839C15.4012 21.5699 15.5726 18.4956 16.8341 15.8051C18.0956 13.1146 20.3494 11.0167 23.1232 9.95094C24.4929 9.48231 25.943 9.29438 27.3869 9.39837C28.8308 9.50237 30.239 9.89615 31.5274 10.5562C32.8158 11.2163 33.9581 12.1291 34.886 13.2403C35.8139 14.3514 36.5085 15.6381 36.9283 17.0235L38.8469 22.8927L18.2745 30.2531L16.3559 24.3839ZM42.5184 58.2731L45.7102 68.023C45.7688 68.2185 45.7499 68.4291 45.6573 68.611C45.5648 68.7928 45.4057 68.9321 45.2131 68.9997L40.7393 70.5956C40.5613 70.645 40.371 70.6236 40.2085 70.5358C40.0459 70.448 39.9236 70.3007 39.8673 70.1247L36.6493 60.4184C34.8749 60.3218 33.1723 59.6853 31.7696 58.5943C30.3669 57.5033 29.331 56.0098 28.8005 54.3138C28.042 52.0717 28.1804 49.623 29.1866 47.4805C30.1928 45.338 31.9889 43.6679 34.1987 42.8198C35.2898 42.447 36.4448 42.2977 37.5948 42.3807C38.7448 42.4638 39.8664 42.7775 40.8926 43.3033C41.9188 43.829 42.8286 44.5559 43.5679 45.4407C44.3072 46.3255 44.8608 47.3501 45.1957 48.4534C45.7568 50.1763 45.8032 52.0254 45.3292 53.7742C44.8552 55.523 43.8814 57.0956 42.5271 58.2993L42.5184 58.2731Z" fill="#00707E"/>
</svg>
