<svg width="319" height="276" viewBox="0 0 319 276" fill="none" xmlns="http://www.w3.org/2000/svg">
<mask id="path-1-outside-1_182_7559" maskUnits="userSpaceOnUse" x="177.881" y="107.408" width="111" height="129" fill="black">
<rect fill="white" x="177.881" y="107.408" width="111" height="129"/>
<path d="M221.796 231.952C213.739 231.952 206.743 230.61 200.806 227.924C194.87 225.239 190.277 221.422 187.026 216.475C183.775 211.387 182.149 205.521 182.149 198.878C182.149 192.518 183.563 186.864 186.39 181.917C189.216 176.829 193.598 172.589 199.534 169.197C205.471 165.804 212.962 163.402 222.008 161.988L259.746 155.84V177.041L227.308 182.553C221.796 183.543 217.697 185.31 215.011 187.854C212.326 190.398 210.983 193.719 210.983 197.818C210.983 201.776 212.467 204.956 215.435 207.359C218.545 209.62 222.361 210.751 226.884 210.751C232.679 210.751 237.767 209.55 242.149 207.147C246.672 204.603 250.135 201.14 252.538 196.758C255.082 192.377 256.354 187.571 256.354 182.341V152.66C256.354 147.713 254.375 143.614 250.417 140.363C246.601 136.971 241.513 135.275 235.153 135.275C229.216 135.275 223.916 136.9 219.252 140.151C214.729 143.26 211.407 147.43 209.287 152.66L186.602 141.635C188.863 135.557 192.397 130.328 197.202 125.946C202.149 121.423 207.944 117.89 214.587 115.345C221.23 112.801 228.439 111.529 236.213 111.529C245.682 111.529 254.022 113.296 261.23 116.829C268.439 120.222 274.022 125.027 277.979 131.246C282.078 137.324 284.127 144.462 284.127 152.66V229.408H257.838V209.691L263.774 209.267C260.806 214.214 257.273 218.384 253.174 221.776C249.075 225.027 244.41 227.571 239.181 229.408C233.951 231.104 228.156 231.952 221.796 231.952Z"/>
</mask>
<path d="M221.796 231.952C213.739 231.952 206.743 230.61 200.806 227.924C194.87 225.239 190.277 221.422 187.026 216.475C183.775 211.387 182.149 205.521 182.149 198.878C182.149 192.518 183.563 186.864 186.39 181.917C189.216 176.829 193.598 172.589 199.534 169.197C205.471 165.804 212.962 163.402 222.008 161.988L259.746 155.84V177.041L227.308 182.553C221.796 183.543 217.697 185.31 215.011 187.854C212.326 190.398 210.983 193.719 210.983 197.818C210.983 201.776 212.467 204.956 215.435 207.359C218.545 209.62 222.361 210.751 226.884 210.751C232.679 210.751 237.767 209.55 242.149 207.147C246.672 204.603 250.135 201.14 252.538 196.758C255.082 192.377 256.354 187.571 256.354 182.341V152.66C256.354 147.713 254.375 143.614 250.417 140.363C246.601 136.971 241.513 135.275 235.153 135.275C229.216 135.275 223.916 136.9 219.252 140.151C214.729 143.26 211.407 147.43 209.287 152.66L186.602 141.635C188.863 135.557 192.397 130.328 197.202 125.946C202.149 121.423 207.944 117.89 214.587 115.345C221.23 112.801 228.439 111.529 236.213 111.529C245.682 111.529 254.022 113.296 261.23 116.829C268.439 120.222 274.022 125.027 277.979 131.246C282.078 137.324 284.127 144.462 284.127 152.66V229.408H257.838V209.691L263.774 209.267C260.806 214.214 257.273 218.384 253.174 221.776C249.075 225.027 244.41 227.571 239.181 229.408C233.951 231.104 228.156 231.952 221.796 231.952Z" fill="#D9EFF2"/>
<path d="M200.806 227.924L199.218 231.436H199.218L200.806 227.924ZM187.026 216.475L183.777 218.551L183.791 218.572L183.804 218.592L187.026 216.475ZM186.39 181.917L189.736 183.83L189.748 183.81L189.759 183.789L186.39 181.917ZM199.534 169.197L201.447 172.543H201.447L199.534 169.197ZM222.008 161.988L222.603 165.797L222.615 165.795L222.628 165.793L222.008 161.988ZM259.746 155.84H263.601V151.306L259.126 152.035L259.746 155.84ZM259.746 177.041L260.392 180.841L263.601 180.296V177.041H259.746ZM227.308 182.553L226.662 178.753L226.645 178.756L226.627 178.759L227.308 182.553ZM215.011 187.854L212.36 185.055L215.011 187.854ZM215.435 207.359L213.01 210.355L213.087 210.418L213.168 210.476L215.435 207.359ZM242.149 207.147L244.002 210.527L244.021 210.517L244.039 210.507L242.149 207.147ZM252.538 196.758L249.204 194.823L249.18 194.863L249.158 194.905L252.538 196.758ZM250.417 140.363L247.856 143.244L247.913 143.294L247.971 143.342L250.417 140.363ZM219.252 140.151L221.435 143.327L221.446 143.32L221.456 143.313L219.252 140.151ZM209.287 152.66L207.602 156.127L211.31 157.929L212.859 154.108L209.287 152.66ZM186.602 141.635L182.989 140.291L181.768 143.572L184.917 145.102L186.602 141.635ZM197.202 125.946L199.799 128.795L199.803 128.791L197.202 125.946ZM214.587 115.345L213.209 111.746L214.587 115.345ZM261.23 116.829L259.533 120.291L259.561 120.304L259.589 120.317L261.23 116.829ZM277.979 131.246L274.727 133.316L274.755 133.359L274.783 133.402L277.979 131.246ZM284.127 229.408V233.263H287.982V229.408H284.127ZM257.838 229.408H253.983V233.263H257.838V229.408ZM257.838 209.691L257.563 205.846L253.983 206.102V209.691H257.838ZM263.774 209.267L267.08 211.25L270.894 204.894L263.5 205.422L263.774 209.267ZM253.174 221.776L255.569 224.796L255.6 224.771L255.631 224.745L253.174 221.776ZM239.181 229.408L240.37 233.075L240.414 233.061L240.459 233.045L239.181 229.408ZM221.796 228.098C214.161 228.098 207.729 226.825 202.395 224.412L199.218 231.436C205.757 234.394 213.318 235.807 221.796 235.807V228.098ZM202.395 224.412C197.055 221.996 193.057 218.634 190.247 214.358L183.804 218.592C187.496 224.21 192.685 228.481 199.218 231.436L202.395 224.412ZM190.274 214.4C187.458 209.993 186.004 204.862 186.004 198.878H178.295C178.295 206.181 180.091 212.781 183.777 218.551L190.274 214.4ZM186.004 198.878C186.004 193.109 187.28 188.129 189.736 183.83L183.043 180.005C179.846 185.6 178.295 191.927 178.295 198.878H186.004ZM189.759 183.789C192.188 179.417 196.014 175.648 201.447 172.543L197.622 165.85C191.182 169.53 186.244 174.241 183.02 180.045L189.759 183.789ZM201.447 172.543C206.864 169.448 213.873 167.161 222.603 165.797L221.413 158.18C212.051 159.642 204.078 162.161 197.622 165.85L201.447 172.543ZM222.628 165.793L260.366 159.644L259.126 152.035L221.388 158.184L222.628 165.793ZM255.891 155.84V177.041H263.601V155.84H255.891ZM259.1 173.241L226.662 178.753L227.954 186.354L260.392 180.841L259.1 173.241ZM226.627 178.759C220.73 179.818 215.805 181.792 212.36 185.055L217.662 190.652C219.589 188.827 222.862 187.268 227.989 186.348L226.627 178.759ZM212.36 185.055C208.819 188.41 207.128 192.787 207.128 197.818H214.838C214.838 194.651 215.833 192.386 217.662 190.652L212.36 185.055ZM207.128 197.818C207.128 202.89 209.1 207.19 213.01 210.355L217.861 204.363C215.834 202.722 214.838 200.662 214.838 197.818H207.128ZM213.168 210.476C217.047 213.297 221.695 214.606 226.884 214.606V206.896C223.028 206.896 220.043 205.943 217.703 204.241L213.168 210.476ZM226.884 214.606C233.223 214.606 238.968 213.288 244.002 210.527L240.295 203.767C236.567 205.812 232.135 206.896 226.884 206.896V214.606ZM244.039 210.507C249.164 207.624 253.155 203.65 255.917 198.612L249.158 194.905C247.115 198.63 244.18 201.582 240.259 203.787L244.039 210.507ZM255.871 198.694C258.768 193.705 260.209 188.228 260.209 182.341H252.499C252.499 186.914 251.395 191.048 249.204 194.823L255.871 198.694ZM260.209 182.341V152.66H252.499V182.341H260.209ZM260.209 152.66C260.209 146.513 257.677 141.337 252.864 137.384L247.971 143.342C251.073 145.89 252.499 148.912 252.499 152.66H260.209ZM252.978 137.482C248.295 133.319 242.216 131.42 235.153 131.42V139.129C240.81 139.129 244.907 140.622 247.856 143.244L252.978 137.482ZM235.153 131.42C228.465 131.42 222.388 133.266 217.047 136.988L221.456 143.313C225.444 140.534 229.967 139.129 235.153 139.129V131.42ZM217.068 136.974C211.904 140.524 208.11 145.303 205.715 151.211L212.859 154.108C214.704 149.557 217.553 145.997 221.435 143.327L217.068 136.974ZM210.972 149.193L188.287 138.168L184.917 145.102L207.602 156.127L210.972 149.193ZM190.214 142.979C192.261 137.478 195.446 132.764 199.799 128.795L194.605 123.097C189.347 127.891 185.465 133.636 182.989 140.291L190.214 142.979ZM199.803 128.791C204.372 124.614 209.746 121.327 215.966 118.945L213.209 111.746C206.142 114.452 199.926 118.233 194.601 123.101L199.803 128.791ZM215.966 118.945C222.13 116.585 228.866 115.384 236.213 115.384V107.674C228.011 107.674 220.331 109.018 213.209 111.746L215.966 118.945ZM236.213 115.384C245.199 115.384 252.94 117.059 259.533 120.291L262.927 113.368C255.103 109.533 246.166 107.674 236.213 107.674V115.384ZM259.589 120.317C266.192 123.425 271.193 127.762 274.727 133.316L281.231 129.177C276.85 122.292 270.685 117.018 262.871 113.342L259.589 120.317ZM274.783 133.402C278.403 138.769 280.273 145.136 280.273 152.66H287.982C287.982 143.788 285.753 135.879 281.175 129.091L274.783 133.402ZM280.273 152.66V229.408H287.982V152.66H280.273ZM284.127 225.553H257.838V233.263H284.127V225.553ZM261.693 229.408V209.691H253.983V229.408H261.693ZM258.113 213.536L264.049 213.112L263.5 205.422L257.563 205.846L258.113 213.536ZM260.469 207.284C257.706 211.888 254.451 215.715 250.716 218.806L255.631 224.745C260.094 221.052 263.906 216.54 267.08 211.25L260.469 207.284ZM250.778 218.756C247.035 221.725 242.753 224.067 237.903 225.771L240.459 233.045C246.068 231.074 251.115 228.329 255.569 224.796L250.778 218.756ZM237.992 225.741C233.201 227.295 227.814 228.098 221.796 228.098V235.807C228.498 235.807 234.701 234.913 240.37 233.075L237.992 225.741Z" fill="#00434C" mask="url(#path-1-outside-1_182_7559)"/>
<mask id="path-3-outside-2_182_7559" maskUnits="userSpaceOnUse" x="-0.105469" y="50" width="171" height="181" fill="black">
<rect fill="white" x="-0.105469" y="50" width="171" height="181"/>
<path d="M5.43868 227L64.8793 54.6915H105.586L165.026 227H130.796L118.538 189.994H51.9273L39.4378 227H5.43868ZM60.9475 162.24H109.518L80.8381 76.4325H89.627L60.9475 162.24Z"/>
</mask>
<path d="M5.43868 227L64.8793 54.6915H105.586L165.026 227H130.796L118.538 189.994H51.9273L39.4378 227H5.43868ZM60.9475 162.24H109.518L80.8381 76.4325H89.627L60.9475 162.24Z" fill="#00434C"/>
<path d="M5.43868 227L1.79125 225.742L0.0262005 230.858H5.43868V227ZM64.8793 54.6915V50.8332H62.1288L61.2319 53.4333L64.8793 54.6915ZM105.586 54.6915L109.233 53.4333L108.336 50.8332H105.586V54.6915ZM165.026 227V230.858H170.439L168.674 225.742L165.026 227ZM130.796 227L127.133 228.213L128.01 230.858H130.796V227ZM118.538 189.994L122.2 188.781L121.324 186.136H118.538V189.994ZM51.9273 189.994V186.136H49.1573L48.2715 188.76L51.9273 189.994ZM39.4378 227V230.858H42.2078L43.0936 228.234L39.4378 227ZM60.9475 162.24L57.2881 161.017L55.5897 166.098H60.9475V162.24ZM109.518 162.24V166.098H114.875L113.177 161.017L109.518 162.24ZM80.8381 76.4325V72.5741H75.4804L77.1787 77.6555L80.8381 76.4325ZM89.627 76.4325L93.2864 77.6555L94.9847 72.5741H89.627V76.4325ZM9.08611 228.258L68.5268 55.9497L61.2319 53.4333L1.79125 225.742L9.08611 228.258ZM64.8793 58.5499H105.586V50.8332H64.8793V58.5499ZM101.938 55.9497L161.379 228.258L168.674 225.742L109.233 53.4333L101.938 55.9497ZM165.026 223.142H130.796V230.858H165.026V223.142ZM134.459 225.787L122.2 188.781L114.875 191.207L127.133 228.213L134.459 225.787ZM118.538 186.136H51.9273V193.853H118.538V186.136ZM48.2715 188.76L35.782 225.766L43.0936 228.234L55.583 191.228L48.2715 188.76ZM39.4378 223.142H5.43868V230.858H39.4378V223.142ZM60.9475 166.098H109.518V158.381H60.9475V166.098ZM113.177 161.017L84.4975 75.2094L77.1787 77.6555L105.858 163.463L113.177 161.017ZM80.8381 80.2908H89.627V72.5741H80.8381V80.2908ZM85.9676 75.2094L57.2881 161.017L64.6068 163.463L93.2864 77.6555L85.9676 75.2094Z" fill="#D9EFF2" mask="url(#path-3-outside-2_182_7559)"/>
</svg>
