<svg width="50" height="46" viewBox="0 0 50 46" fill="none" xmlns="http://www.w3.org/2000/svg">
<path d="M0 45.8678C0 36.2174 8.53457 28.3943 19.0625 28.3943C29.5905 28.3943 38.125 36.2174 38.125 45.8678H0ZM19.0625 26.2102C11.1635 26.2102 4.76563 20.3456 4.76563 13.1051C4.76563 5.86452 11.1635 0 19.0625 0C26.9615 0 33.3594 5.86452 33.3594 13.1051C33.3594 20.3456 26.9615 26.2102 19.0625 26.2102ZM36.6067 31.0879C43.9586 32.8101 49.486 38.7113 50 45.8678H42.8906C42.8906 40.1675 40.5083 34.9772 36.6067 31.0879ZM31.787 26.116C35.6774 22.9168 38.125 18.273 38.125 13.1051C38.125 10.0094 37.2467 7.10166 35.7062 4.57994C41.1638 5.57833 45.2735 9.99186 45.2735 15.2893C45.2735 21.3231 39.9419 26.2102 33.3594 26.2102C32.8264 26.2102 32.3014 26.178 31.787 26.116Z" fill="#00434C"/>
</svg>
