<svg width="148" height="194" viewBox="0 0 148 194" fill="none" xmlns="http://www.w3.org/2000/svg">
<path d="M147.885 193.073C147.885 193.138 115.633 193.194 75.8608 193.194C36.0887 193.194 3.82227 193.138 3.82227 193.073C3.82227 193.008 36.0701 192.952 75.8608 192.952C115.652 192.952 147.885 193.013 147.885 193.073Z" fill="#263238"/>
<path d="M116.461 136.213C109.285 131.202 107.659 121.899 107.942 113.533C107.989 112.14 107.835 110.663 108.5 109.442C109.164 108.22 110.715 107.379 111.965 107.965C113 108.452 113.451 109.66 114.031 110.658C114.806 111.989 115.941 113.072 117.306 113.784C118.193 114.249 119.294 114.527 120.172 114.044C121.379 113.38 121.519 111.722 121.509 110.329C121.509 107.737 121.494 105.148 121.463 102.563C121.379 101.174 121.521 99.7817 121.881 98.4384C122.313 97.1193 123.274 95.8977 124.589 95.5262C125.903 95.1546 127.543 95.921 127.84 97.2772C127.891 97.8516 127.905 98.4288 127.882 99.005C127.919 99.5856 128.188 100.222 128.732 100.398C129.275 100.575 129.842 100.171 130.26 99.7621C131.69 98.3687 132.666 96.5526 133.571 94.7598C134.477 92.967 135.364 91.123 136.665 89.5949C137.965 88.0669 139.763 86.8546 141.774 86.7385C143.785 86.6224 145.88 87.8579 146.381 89.8086C146.883 91.7594 145.745 93.7519 144.524 95.3357C142.68 97.6867 140.507 99.7595 138.072 101.49C137.597 101.749 137.217 102.155 136.99 102.646C136.688 103.575 137.566 104.504 138.481 104.797C139.517 105.141 140.641 105.034 141.732 105.164C142.824 105.294 143.985 105.768 144.398 106.789C144.965 108.211 143.776 109.697 142.61 110.672C140.269 112.623 137.611 114.158 134.751 115.21C133.729 115.582 132.656 115.912 131.83 116.627C131.003 117.342 130.511 118.592 131.008 119.572C131.505 120.552 132.782 120.863 133.855 120.663C134.928 120.463 135.88 119.887 136.902 119.502C138.811 118.782 141.272 118.912 142.475 120.561C142.848 121.129 143.084 121.775 143.164 122.45C143.245 123.125 143.168 123.809 142.94 124.448C142.475 125.722 141.759 126.889 140.836 127.881C137.794 131.515 133.841 134.277 129.382 135.884C124.956 137.416 120.854 137.834 116.456 136.223" fill="#00707E"/>
<path d="M144.337 87.8857C144.337 87.8857 144.296 87.9322 144.203 88.0158L143.789 88.3827C143.427 88.7078 142.893 89.1816 142.219 89.8086C140.31 91.5816 138.537 93.4959 136.915 95.5355C135.879 96.8221 134.807 98.2805 133.664 99.8643C132.521 101.448 131.342 103.157 130.171 104.973C128.923 106.888 127.781 108.87 126.748 110.909C126.209 111.973 125.736 113.083 125.248 114.216L123.808 117.677C121.91 122.035 120.257 126.496 118.857 131.039C117.729 134.756 116.951 138.571 116.534 142.433C116.264 145.039 116.221 147.664 116.404 150.277C116.479 151.206 116.548 151.917 116.613 152.4C116.641 152.632 116.66 152.818 116.678 152.953V153.143C116.658 153.083 116.644 153.02 116.637 152.957C116.613 152.823 116.586 152.641 116.548 152.409C116.465 151.945 116.377 151.211 116.293 150.282C116.069 147.663 116.084 145.03 116.339 142.414C116.73 138.536 117.491 134.703 118.611 130.97C119.999 126.414 121.648 121.941 123.548 117.574L125.025 114.128C125.513 112.999 125.991 111.88 126.534 110.812C127.574 108.766 128.726 106.78 129.985 104.862C131.174 103.004 132.373 101.323 133.501 99.7528C134.63 98.1829 135.721 96.7152 136.753 95.4333C138.391 93.3991 140.188 91.4982 142.126 89.7482C142.814 89.1305 143.362 88.666 143.734 88.3548L144.165 88.0065C144.218 87.9604 144.276 87.9199 144.337 87.8857Z" fill="#263238"/>
<path d="M126.594 110.802C126.529 110.611 126.484 110.413 126.46 110.213C126.385 109.827 126.302 109.284 126.204 108.578C126.005 107.184 125.8 105.275 125.582 103.162C125.364 101.049 125.117 99.135 124.913 97.7556C124.806 97.0681 124.713 96.5154 124.648 96.1299C124.598 95.9326 124.571 95.7299 124.569 95.5261C124.649 95.7122 124.707 95.9071 124.741 96.1067C124.843 96.4876 124.959 97.0356 125.09 97.7277C125.354 99.1211 125.614 101.016 125.833 103.134C126.051 105.252 126.237 107.11 126.381 108.554C126.45 109.205 126.511 109.757 126.557 110.199C126.593 110.398 126.606 110.6 126.594 110.802Z" fill="#263238"/>
<path d="M144.468 107.467C144.242 107.517 144.012 107.545 143.78 107.551C143.316 107.593 142.656 107.649 141.839 107.742C140.204 107.918 137.956 108.243 135.49 108.708C133.023 109.172 130.808 109.697 129.215 110.101C128.42 110.305 127.78 110.491 127.357 110.617C127.131 110.697 126.898 110.753 126.66 110.784C126.875 110.676 127.099 110.587 127.329 110.519C127.766 110.366 128.397 110.152 129.187 109.925C130.771 109.46 132.986 108.907 135.462 108.434C137.559 108.033 139.675 107.738 141.802 107.551C142.624 107.481 143.288 107.454 143.752 107.444C143.991 107.428 144.231 107.436 144.468 107.467Z" fill="#263238"/>
<path d="M118.839 130.644C118.789 130.577 118.749 130.504 118.718 130.426L118.412 129.78C118.147 129.218 117.789 128.387 117.362 127.37C116.498 125.326 115.397 122.465 114.227 119.288C113.056 116.111 111.979 113.25 111.161 111.183C110.762 110.18 110.432 109.358 110.186 108.745L109.926 108.081C109.89 108.004 109.865 107.923 109.852 107.839C109.901 107.906 109.942 107.98 109.972 108.057L110.279 108.703C110.539 109.265 110.901 110.096 111.329 111.114C112.192 113.157 113.293 116.018 114.464 119.195C115.634 122.372 116.712 125.233 117.529 127.3C117.929 128.303 118.258 129.126 118.5 129.739C118.607 130.003 118.695 130.203 118.765 130.403C118.801 130.479 118.826 130.561 118.839 130.644Z" fill="#263238"/>
<path d="M142.564 122.995C142.489 123.037 142.409 123.07 142.327 123.092L141.639 123.324L139.099 124.147C136.953 124.843 133.989 125.837 130.738 126.933C127.487 128.029 124.51 129.005 122.35 129.655C121.272 129.985 120.395 130.236 119.786 130.403L119.085 130.584C119.003 130.61 118.919 130.627 118.834 130.635C118.908 130.592 118.988 130.56 119.071 130.538L119.758 130.305L122.299 129.483C124.445 128.787 127.408 127.793 130.659 126.696C133.911 125.6 136.883 124.625 139.043 123.975C140.125 123.645 140.998 123.394 141.611 123.227L142.313 123.046C142.394 123.02 142.478 123.003 142.564 122.995Z" fill="#263238"/>
<path d="M132.884 10.3292L130.492 11.1838L129.466 8.05795C127.58 2.29394 121.57 -0.766888 116.047 1.17922C110.525 3.12533 107.585 9.4467 109.47 15.2107L110.497 18.3366L108.095 19.1958C107.18 19.551 106.436 20.2453 106.019 21.1346C105.602 22.0238 105.544 23.0395 105.857 23.9705L112.513 44.3095C112.651 44.7704 112.88 45.1988 113.187 45.5693C113.494 45.9398 113.872 46.2448 114.3 46.4662C114.727 46.6876 115.194 46.8208 115.674 46.8581C116.154 46.8953 116.636 46.8357 117.092 46.6829L141.881 37.8162C142.808 37.4617 143.563 36.7612 143.984 35.862C144.406 34.9629 144.463 33.9352 144.143 32.9951L137.482 12.6562C137.34 12.1965 137.108 11.7702 136.797 11.4026C136.487 11.0349 136.106 10.7335 135.677 10.5163C135.248 10.2992 134.78 10.1707 134.3 10.1385C133.82 10.1064 133.338 10.1712 132.884 10.3292ZM113.99 13.5804C113.481 12.0817 113.572 10.4444 114.244 9.01143C114.916 7.5785 116.116 6.46117 117.594 5.89354C118.323 5.64395 119.096 5.54387 119.865 5.59925C120.634 5.65464 121.384 5.86436 122.07 6.21591C122.756 6.56746 123.364 7.05364 123.859 7.64542C124.353 8.23721 124.723 8.92248 124.946 9.66036L125.968 12.7862L115.011 16.7063L113.99 13.5804ZM127.923 31.6296L129.623 36.8223C129.655 36.9264 129.645 37.0385 129.595 37.1354C129.546 37.2323 129.461 37.3064 129.359 37.3425L126.976 38.1924C126.881 38.2187 126.78 38.2073 126.693 38.1606C126.607 38.1138 126.542 38.0353 126.512 37.9416L124.798 32.7721C123.853 32.7206 122.946 32.3817 122.199 31.8006C121.452 31.2196 120.9 30.4242 120.617 29.5209C120.213 28.3267 120.287 27.0226 120.823 25.8815C121.359 24.7404 122.316 23.8509 123.492 23.3992C124.074 23.2007 124.689 23.1212 125.301 23.1654C125.914 23.2096 126.511 23.3767 127.058 23.6567C127.604 23.9367 128.089 24.3239 128.482 24.7951C128.876 25.2664 129.171 25.8121 129.349 26.3997C129.648 27.3172 129.673 28.3021 129.421 29.2335C129.168 30.1649 128.649 31.0024 127.928 31.6435L127.923 31.6296Z" fill="#00707E"/>
<path d="M130.385 11.1281C130.385 11.1931 125.949 12.8606 120.431 14.8438C114.914 16.8271 110.413 18.4202 110.39 18.3738C110.367 18.3273 114.825 16.646 120.348 14.6581C125.87 12.6701 130.362 11.0677 130.385 11.1281Z" fill="#263238"/>
<path d="M135.652 11.9829C135.673 12.0232 135.69 12.0652 135.704 12.1083C135.741 12.2012 135.783 12.322 135.838 12.4706C135.959 12.8097 136.126 13.2788 136.335 13.864L138.119 19.0567C138.862 21.2583 139.749 23.8686 140.734 26.7668C141.198 28.2206 141.746 29.7348 142.257 31.3279C142.531 32.1488 142.649 33.0136 142.606 33.8778C142.566 34.3273 142.438 34.7645 142.229 35.1644C142.006 35.5629 141.708 35.9146 141.351 36.2001C140.634 36.7239 139.837 37.13 138.992 37.4031L136.6 38.2623L132.071 39.8833L124.403 42.6144L119.224 44.4351L117.831 44.8996L117.459 45.0203C117.42 45.038 117.377 45.049 117.334 45.0528C117.334 45.0528 117.371 45.0528 117.45 44.9971L117.812 44.8531L119.206 44.3283L124.357 42.4332L132.011 39.6465L136.53 38.0115L138.922 37.1476C139.744 36.8857 140.517 36.4919 141.212 35.9818C141.544 35.7169 141.821 35.3904 142.03 35.0204C142.226 34.6506 142.345 34.2443 142.378 33.8267C142.421 32.994 142.307 32.1607 142.044 31.3697C141.542 29.7905 141.012 28.2624 140.534 26.8086C139.568 23.9057 138.676 21.2861 137.97 19.0846C137.264 16.883 136.67 15.1134 136.261 13.8686C136.066 13.2602 135.917 12.7864 135.796 12.4427L135.685 12.0712C135.671 12.043 135.66 12.0134 135.652 11.9829Z" fill="#263238"/>
<path d="M122.573 5.57759C122.573 5.57759 122.327 5.45682 121.872 5.27104C121.223 5.02175 120.537 4.88357 119.842 4.86231C118.812 4.827 117.788 5.02053 116.842 5.42896C115.691 5.93753 114.708 6.76014 114.004 7.80237C113.295 8.84163 112.915 10.0698 112.912 11.3277C112.922 12.3586 113.078 13.383 113.377 14.3699C113.618 15.2152 113.869 15.8887 114.036 16.3578C114.135 16.5961 114.216 16.8414 114.278 17.0917C114.146 16.8689 114.035 16.6341 113.948 16.3903C113.758 15.9259 113.483 15.2663 113.214 14.4164C112.883 13.4191 112.703 12.3781 112.68 11.3277C112.668 10.0222 113.057 8.74457 113.795 7.66768C114.523 6.58738 115.547 5.73933 116.744 5.22459C117.719 4.81393 118.776 4.63277 119.833 4.6951C120.543 4.73127 121.24 4.89654 121.89 5.18279C122.064 5.26303 122.232 5.35618 122.392 5.46147C122.458 5.49049 122.519 5.52967 122.573 5.57759Z" fill="#263238"/>
<path d="M122.787 23.7522C122.861 23.7073 122.939 23.6685 123.02 23.6361C123.252 23.5312 123.493 23.4458 123.739 23.3807C124.131 23.2651 124.535 23.1965 124.942 23.1763C125.497 23.1465 126.052 23.2303 126.573 23.4225C127.762 23.8405 128.853 25.0527 129.392 26.6737C129.65 27.5436 129.65 28.4698 129.392 29.3397C129.106 30.2839 128.592 31.1434 127.896 31.8432L127.924 31.7178C128.542 33.4131 129.216 35.2524 129.912 37.1706L129.954 37.2867L129.838 37.3285L128.774 37.6815L126.452 38.4572L126.336 38.4943L126.299 38.3782C125.662 36.4553 124.966 34.6625 124.441 32.9022L124.543 32.9811C123.635 32.9057 122.769 32.5649 122.053 32.0011C121.406 31.5024 120.875 30.8683 120.497 30.1433C120.157 29.5003 119.987 28.7805 120.005 28.0532C120.027 27.3098 120.212 26.5803 120.549 25.9171C120.885 25.2538 121.364 24.6732 121.951 24.2167C122.193 24.0205 122.464 23.8637 122.755 23.7522C122.492 23.9079 122.238 24.0769 121.993 24.2585C121.348 24.8042 120.854 25.5062 120.558 26.2975C120.304 26.8942 120.185 27.5397 120.21 28.1877C120.235 28.8358 120.403 29.4703 120.702 30.0457C121.073 30.7433 121.591 31.3518 122.221 31.8293C122.903 32.3652 123.729 32.6882 124.594 32.7582H124.673L124.696 32.8279C125.207 34.5557 125.909 36.3625 126.554 38.2946L126.401 38.2203L128.723 37.4447L129.782 37.087L129.708 37.2449C129.016 35.3267 128.347 33.4828 127.734 31.7875V31.7178L127.79 31.6621C128.465 30.9913 128.968 30.1676 129.257 29.2608C129.504 28.4287 129.504 27.543 129.257 26.7109C128.751 25.1503 127.706 23.9659 126.573 23.5479C126.071 23.3544 125.535 23.2644 124.998 23.2831C124.597 23.2923 124.198 23.3468 123.809 23.4457C123.117 23.6175 122.792 23.7754 122.787 23.7522Z" fill="#263238"/>
<path d="M108.43 157.862L62.0343 157.648C59.355 157.633 56.7911 156.556 54.9056 154.652C53.0202 152.748 51.9675 150.174 51.9786 147.495L52.4709 31.1881C52.4764 29.8607 52.7434 28.5474 53.2568 27.3232C53.7701 26.0991 54.5197 24.9881 55.4626 24.0538C56.4055 23.1195 57.5234 22.3802 58.7522 21.8781C59.981 21.376 61.2967 21.1211 62.6241 21.1278L109.015 21.3415C111.694 21.355 114.259 22.4314 116.145 24.3342C118.031 26.237 119.085 28.8107 119.075 31.49L118.583 147.792C118.577 149.12 118.31 150.434 117.797 151.658C117.284 152.883 116.535 153.995 115.592 154.93C114.649 155.865 113.531 156.605 112.302 157.108C111.073 157.611 109.758 157.867 108.43 157.862Z" fill="#C2D2D4"/>
<path d="M108.945 25.3407H99.9534C99.66 25.3461 99.3705 25.4093 99.1015 25.5266C98.8326 25.6439 98.5893 25.8131 98.3858 26.0245C98.1822 26.2358 98.0222 26.4852 97.915 26.7584C97.8079 27.0315 97.7556 27.3231 97.7611 27.6165V29.2468C97.7666 29.54 97.7143 29.8314 97.607 30.1043C97.4998 30.3772 97.3398 30.6263 97.1361 30.8372C96.9325 31.0482 96.6892 31.2169 96.4203 31.3338C96.1513 31.4506 95.862 31.5132 95.5688 31.518L78.0399 31.4391C77.4469 31.4233 76.8844 31.1728 76.476 30.7426C76.0676 30.3124 75.8466 29.7376 75.8616 29.1446V27.5144C75.8766 26.9221 75.6562 26.3481 75.2488 25.918C74.8413 25.488 74.28 25.2369 73.6879 25.2199H70.5249L62.6522 25.1827C60.7796 25.1716 58.979 25.9029 57.6445 27.2165C56.3099 28.5301 55.5503 30.319 55.5319 32.1915L55.0675 145.716C55.0632 146.645 55.2419 147.566 55.5935 148.426C55.945 149.285 56.4625 150.068 57.1163 150.728C57.7702 151.387 58.5476 151.912 59.4042 152.272C60.2608 152.631 61.1798 152.818 62.1088 152.822L108.407 153.036C109.336 153.04 110.257 152.861 111.118 152.51C111.978 152.158 112.761 151.64 113.421 150.986C114.082 150.332 114.607 149.554 114.966 148.696C115.326 147.839 115.513 146.92 115.518 145.99L115.982 32.4656C115.993 30.5878 115.258 28.7825 113.939 27.4464C112.619 26.1104 110.823 25.3529 108.945 25.3407Z" fill="white"/>
<path d="M102.884 138.062L68.4574 137.914C68.0998 137.914 67.8118 137.524 67.8165 137.05L67.8536 128.044C67.8536 127.579 68.1462 127.18 68.5039 127.18L102.93 127.338C103.128 127.372 103.306 127.482 103.425 127.643C103.544 127.805 103.597 128.007 103.571 128.206L103.538 137.203C103.538 137.681 103.241 138.067 102.884 138.062Z" fill="#00707E"/>
<path d="M78.6361 133.73C78.2535 133.73 77.8783 133.595 77.6888 133.398L77.7945 133.19C77.9766 133.369 78.3009 133.5 78.6361 133.5C79.1134 133.5 79.321 133.3 79.321 133.048C79.321 132.349 77.7508 132.779 77.7508 131.835C77.7508 131.46 78.0422 131.136 78.6907 131.136C78.9785 131.136 79.2773 131.219 79.4813 131.361L79.3902 131.576C79.1716 131.434 78.9166 131.365 78.6907 131.365C78.2244 131.365 78.0167 131.573 78.0167 131.828C78.0167 132.527 79.587 132.105 79.587 133.034C79.587 133.409 79.2882 133.73 78.6361 133.73ZM80.1744 133.708V131.157H80.444V133.708H80.1744ZM83.1392 131.157H83.4052V133.708H83.1829L81.5434 131.638V133.708H81.2738V131.157H81.4961L83.1392 133.227V131.157ZM86.0337 133.292V132.433H86.2924V133.405C86.0519 133.62 85.7095 133.73 85.3561 133.73C84.58 133.73 84.0117 133.179 84.0117 132.433C84.0117 131.686 84.58 131.136 85.3597 131.136C85.7459 131.136 86.0811 131.259 86.307 131.504L86.1394 131.675C85.9244 131.463 85.6694 131.376 85.3706 131.376C84.7403 131.376 84.2776 131.824 84.2776 132.433C84.2776 133.037 84.7403 133.489 85.367 133.489C85.6111 133.489 85.837 133.435 86.0337 133.292ZM89.0364 133.73C88.3842 133.73 87.9871 133.351 87.9871 132.618V131.157H88.2567V132.607C88.2567 133.212 88.5409 133.489 89.0364 133.489C89.5355 133.489 89.8197 133.212 89.8197 132.607V131.157H90.082V132.618C90.082 133.351 89.6885 133.73 89.0364 133.73ZM91.849 131.157C92.4975 131.157 92.891 131.485 92.891 132.032C92.891 132.575 92.4975 132.903 91.849 132.903H91.1641V133.708H90.8945V131.157H91.849ZM91.8417 132.666C92.3518 132.666 92.6214 132.433 92.6214 132.032C92.6214 131.624 92.3518 131.391 91.8417 131.391H91.1641V132.666H91.8417Z" fill="#E8E8E3"/>
<path d="M75.1578 58.7127L63.2119 58.6584L63.202 60.8507L75.1479 60.9049L75.1578 58.7127Z" fill="#00707E"/>
<path opacity="0.1" d="M75.1578 58.7127L63.2119 58.6584L63.202 60.8507L75.1479 60.9049L75.1578 58.7127Z" fill="black"/>
<path d="M110.176 72.1727C110.27 72.1632 110.362 72.1414 110.45 72.1077C110.579 72.0574 110.691 71.9719 110.773 71.861C110.855 71.7501 110.904 71.6183 110.915 71.4807C110.915 70.7422 110.915 69.6646 110.915 68.2805C110.915 67.5884 110.915 66.8128 110.915 65.9582C110.915 65.7492 110.915 65.5309 110.915 65.3126C110.945 65.1007 110.899 64.8851 110.785 64.7041C110.721 64.6174 110.638 64.5466 110.542 64.4974C110.446 64.4483 110.34 64.422 110.232 64.4208H109.508H102.796L63.9482 64.2768C63.8488 64.2751 63.7504 64.2975 63.6615 64.3419C63.5725 64.3864 63.4956 64.4517 63.4373 64.5323C63.3252 64.7139 63.2823 64.93 63.3165 65.1407C63.3165 65.6052 63.3165 66.0696 63.3165 66.5341C63.3165 67.463 63.3165 68.392 63.3165 69.3209C63.3165 69.7854 63.3165 70.2498 63.3165 70.7143C63.2973 70.9306 63.2973 71.1482 63.3165 71.3645C63.3409 71.4573 63.3863 71.5432 63.4491 71.6157C63.5119 71.6881 63.5905 71.7452 63.6788 71.7826C63.7703 71.819 63.8683 71.8364 63.9668 71.8337H66.3309L76.6467 71.8894L94.1106 71.9962L105.885 72.0891L109.085 72.1263H109.916C110.107 72.1263 110.2 72.1263 110.2 72.1263H109.916H109.085H105.885H94.1106L76.6467 72.0705L66.3309 72.0287H63.9668C63.8367 72.034 63.7069 72.0118 63.5859 71.9637C63.4636 71.9115 63.3549 71.8321 63.2679 71.7315C63.181 71.6308 63.1182 71.5117 63.0843 71.3831C63.0574 71.2612 63.048 71.1361 63.0564 71.0115V70.6678C63.0564 70.2034 63.0564 69.7389 63.0564 69.2744C63.0564 68.3455 63.0564 67.4166 63.0564 66.4877C63.0564 66.0232 63.0564 65.5587 63.0564 65.0943C63.0476 64.9706 63.0476 64.8464 63.0564 64.7227C63.0739 64.5861 63.1267 64.4564 63.2097 64.3465C63.2898 64.2344 63.3959 64.1433 63.5188 64.081C63.6418 64.0187 63.7779 63.9871 63.9157 63.9888L102.764 64.2025L109.475 64.2489H110.2C110.327 64.249 110.453 64.2799 110.566 64.3389C110.679 64.3979 110.777 64.4834 110.85 64.588C110.981 64.7899 111.034 65.0327 110.999 65.2708C110.999 65.4891 110.999 65.7074 110.999 65.9164C110.999 66.7617 110.999 67.5373 110.999 68.2387C110.999 69.6321 110.966 70.7004 110.957 71.4435C110.945 71.5864 110.893 71.7231 110.807 71.8374C110.721 71.9518 110.603 72.0391 110.469 72.0891C110.381 72.1436 110.28 72.1725 110.176 72.1727Z" fill="#E0E0E0"/>
<path d="M88.6482 66.6082H66.7998V68.6564H88.6482V66.6082Z" fill="#00707E"/>
<path opacity="0.2" d="M88.6482 66.6082H66.7998V68.6564H88.6482V66.6082Z" fill="white"/>
<path d="M75.0758 78.7117L63.1299 78.6575L63.1199 80.8497L75.0659 80.9039L75.0758 78.7117Z" fill="#00707E"/>
<path opacity="0.1" d="M75.0758 78.7117L63.1299 78.6575L63.1199 80.8497L75.0659 80.9039L75.0758 78.7117Z" fill="black"/>
<path d="M109.874 92.1723C109.967 92.1608 110.061 92.1437 110.152 92.1212C110.282 92.08 110.401 92.0113 110.502 91.92C110.603 91.8286 110.684 91.7167 110.738 91.5918C110.811 91.4042 110.839 91.2023 110.821 91.0019C110.821 90.7789 110.821 90.5374 110.821 90.268C110.821 89.7292 110.821 89.1161 110.821 88.4102V85.4608C110.843 85.2473 110.796 85.0323 110.686 84.8477C110.572 84.6584 110.392 84.5179 110.18 84.4529C109.949 84.4116 109.713 84.3992 109.479 84.4158H102.795L64.082 84.2718C63.8738 84.2723 63.6728 84.3484 63.5165 84.4859C63.3601 84.6235 63.2591 84.8131 63.2321 85.0196C63.2321 85.4608 63.2321 85.9485 63.2321 86.413C63.2321 87.3419 63.2321 88.2708 63.2321 89.1998C63.2321 89.6642 63.2321 90.1287 63.2321 90.5932C63.2148 90.8102 63.2241 91.0286 63.2599 91.2434C63.3179 91.4317 63.4373 91.5952 63.599 91.7079C63.7706 91.8167 63.9721 91.8688 64.1749 91.8565H64.8205H66.1628L76.4415 91.9076L93.845 92.0144L105.577 92.1073L108.768 92.1445H105.577H93.845L76.4322 92.1259L66.1535 92.0887H64.1331C63.8819 92.1036 63.6326 92.0368 63.4225 91.8983C63.2111 91.7519 63.0569 91.5369 62.9859 91.2899C62.9443 91.0538 62.9318 90.8136 62.9487 90.5746C62.9487 90.1101 62.9487 89.6456 62.9487 89.1812C62.9487 88.2522 62.9487 87.3233 62.9487 86.3944C62.9487 85.9299 62.9487 85.4655 62.9487 85.001C62.9826 84.7354 63.1121 84.4913 63.3131 84.3143C63.514 84.1373 63.7725 84.0397 64.0402 84.0396L102.753 84.2532L109.437 84.3043C109.686 84.289 109.936 84.3062 110.18 84.3554C110.422 84.4342 110.625 84.5997 110.751 84.8198C110.872 85.0244 110.924 85.2619 110.9 85.498C110.9 85.7163 110.9 85.9299 110.9 86.1436C110.9 86.9843 110.9 87.7553 110.9 88.4659C110.9 89.1765 110.9 89.7757 110.9 90.3238C110.9 90.5885 110.9 90.8347 110.9 91.0623C110.917 91.27 110.884 91.4787 110.803 91.6707C110.742 91.7989 110.655 91.9125 110.547 92.0039C110.439 92.0953 110.312 92.1622 110.176 92.2002C110.074 92.2086 109.972 92.1992 109.874 92.1723Z" fill="#E0E0E0"/>
<path d="M74.986 99.5796L63.04 99.5254L63.0301 101.718L74.976 101.772L74.986 99.5796Z" fill="#00707E"/>
<path opacity="0.1" d="M74.986 99.5796L63.04 99.5254L63.0301 101.718L74.976 101.772L74.986 99.5796Z" fill="black"/>
<path d="M109.782 113.032C109.876 113.02 109.969 113.003 110.061 112.98C110.19 112.939 110.309 112.871 110.41 112.781C110.511 112.69 110.591 112.58 110.646 112.456C110.719 112.268 110.747 112.066 110.73 111.866C110.73 111.638 110.73 111.401 110.73 111.127C110.73 110.593 110.73 109.975 110.73 109.269V106.32C110.752 106.106 110.704 105.892 110.595 105.707C110.478 105.521 110.298 105.383 110.089 105.317C109.857 105.274 109.622 105.26 109.387 105.275H102.704L63.9904 105.131C63.7822 105.131 63.5812 105.208 63.4249 105.345C63.2685 105.483 63.1675 105.672 63.1405 105.879C63.1405 106.343 63.1405 106.808 63.1405 107.272C63.1405 108.201 63.1405 109.13 63.1405 110.059C63.1405 110.523 63.1405 110.988 63.1405 111.452C63.1232 111.668 63.1325 111.885 63.1683 112.098C63.2239 112.287 63.3438 112.452 63.5074 112.562C63.6779 112.674 63.8802 112.726 64.0833 112.711H66.1037L76.3824 112.767L93.7859 112.874L105.518 112.967L108.709 113.004H105.518H93.7859L76.3824 112.953L66.1037 112.911H64.0833C63.8319 112.928 63.5819 112.861 63.3727 112.72C63.1613 112.574 63.0071 112.359 62.9361 112.112C62.8945 111.876 62.882 111.636 62.8989 111.397C62.8989 110.932 62.8989 110.468 62.8989 110.003C62.8989 109.074 62.8989 108.145 62.8989 107.216C62.8989 106.752 62.8989 106.288 62.8989 105.8C62.9318 105.535 63.0603 105.291 63.2605 105.114C63.4606 104.936 63.7186 104.839 63.9858 104.838L102.699 105.052L109.383 105.103C109.631 105.088 109.881 105.105 110.126 105.154C110.367 105.233 110.571 105.399 110.697 105.619C110.817 105.823 110.869 106.061 110.846 106.297C110.846 106.515 110.846 106.733 110.846 106.942C110.846 107.783 110.846 108.554 110.846 109.265C110.846 109.975 110.846 110.575 110.846 111.123C110.846 111.387 110.846 111.634 110.846 111.861C110.863 112.069 110.83 112.278 110.748 112.47C110.688 112.598 110.601 112.711 110.492 112.803C110.384 112.894 110.258 112.961 110.121 112.999C110.012 113.036 109.896 113.047 109.782 113.032Z" fill="#E0E0E0"/>
<path d="M88.1822 87.1873L66.334 87.0881L66.3247 89.1364L88.1729 89.2355L88.1822 87.1873Z" fill="#00707E"/>
<path opacity="0.2" d="M88.1822 87.1873L66.334 87.0881L66.3247 89.1364L88.1729 89.2355L88.1822 87.1873Z" fill="white"/>
<path d="M68.3095 109.242C68.2958 109.428 68.2275 109.607 68.1132 109.756C67.9989 109.904 67.8435 110.016 67.6663 110.076C67.4892 110.137 67.298 110.145 67.1166 110.098C66.9352 110.051 66.7715 109.953 66.6458 109.814C66.5201 109.675 66.438 109.502 66.4095 109.317C66.3811 109.132 66.4076 108.942 66.4859 108.772C66.5641 108.602 66.6906 108.458 66.8496 108.359C67.0087 108.26 67.1933 108.21 67.3805 108.215C67.6393 108.23 67.8819 108.345 68.0558 108.538C68.2297 108.73 68.3209 108.983 68.3095 109.242Z" fill="#00707E"/>
<path d="M71.2677 109.256C71.2769 109.387 71.259 109.518 71.2151 109.642C71.1713 109.765 71.1025 109.879 71.013 109.975C70.9234 110.071 70.8151 110.147 70.6947 110.2C70.5744 110.252 70.4445 110.279 70.3132 110.279C70.182 110.279 70.0521 110.252 69.9317 110.2C69.8114 110.147 69.703 110.071 69.6135 109.975C69.524 109.879 69.4552 109.765 69.4114 109.642C69.3675 109.518 69.3496 109.387 69.3588 109.256C69.3496 109.125 69.3675 108.993 69.4114 108.87C69.4552 108.746 69.524 108.632 69.6135 108.536C69.703 108.44 69.8114 108.364 69.9317 108.312C70.0521 108.259 70.182 108.232 70.3132 108.232C70.4445 108.232 70.5744 108.259 70.6947 108.312C70.8151 108.364 70.9234 108.44 71.013 108.536C71.1025 108.632 71.1713 108.746 71.2151 108.87C71.259 108.993 71.2769 109.125 71.2677 109.256Z" fill="#00707E"/>
<path d="M74.2313 109.269C74.2176 109.456 74.1494 109.635 74.0351 109.783C73.9207 109.932 73.7654 110.043 73.5882 110.104C73.4111 110.165 73.2199 110.173 73.0385 110.126C72.8571 110.079 72.6934 109.98 72.5677 109.841C72.442 109.703 72.3598 109.53 72.3314 109.345C72.303 109.16 72.3295 108.97 72.4077 108.8C72.486 108.63 72.6125 108.486 72.7715 108.387C72.9306 108.288 73.1151 108.238 73.3024 108.243C73.5607 108.259 73.8027 108.375 73.9763 108.567C74.15 108.759 74.2415 109.011 74.2313 109.269Z" fill="#00707E"/>
<path d="M77.1903 109.283C77.1766 109.47 77.1084 109.649 76.994 109.797C76.8797 109.945 76.7243 110.057 76.5472 110.118C76.37 110.179 76.1789 110.186 75.9975 110.14C75.8161 110.093 75.6524 109.994 75.5267 109.855C75.401 109.716 75.3188 109.544 75.2904 109.358C75.2619 109.173 75.2885 108.984 75.3667 108.814C75.445 108.643 75.5715 108.5 75.7305 108.401C75.8895 108.302 76.0741 108.252 76.2614 108.257C76.5197 108.272 76.7617 108.388 76.9353 108.58C77.109 108.772 77.2005 109.025 77.1903 109.283Z" fill="#00707E"/>
<path d="M80.1487 109.292C80.1359 109.48 80.0683 109.659 79.9545 109.808C79.8407 109.957 79.6855 110.069 79.5084 110.131C79.3313 110.192 79.14 110.201 78.9582 110.154C78.7764 110.108 78.6123 110.009 78.4861 109.871C78.36 109.732 78.2774 109.559 78.2486 109.374C78.2199 109.188 78.2462 108.999 78.3244 108.828C78.4025 108.658 78.5291 108.514 78.6883 108.415C78.8474 108.316 79.0323 108.266 79.2197 108.271C79.4772 108.286 79.7185 108.402 79.892 108.593C80.0655 108.784 80.1576 109.035 80.1487 109.292Z" fill="#00707E"/>
<path d="M83.1116 109.307C83.0989 109.493 83.0321 109.671 82.9193 109.82C82.8066 109.968 82.6529 110.081 82.477 110.143C82.3012 110.206 82.111 110.215 81.9297 110.171C81.7485 110.127 81.5842 110.03 81.457 109.894C81.3298 109.757 81.2453 109.587 81.2139 109.403C81.1824 109.219 81.2055 109.03 81.2801 108.859C81.3548 108.688 81.4778 108.542 81.634 108.44C81.7902 108.338 81.9729 108.284 82.1594 108.285C82.421 108.294 82.6681 108.407 82.8466 108.599C83.0251 108.79 83.1204 109.045 83.1116 109.307Z" fill="#00707E"/>
<path d="M86.0695 109.321C86.0786 109.451 86.0607 109.583 86.0169 109.707C85.9731 109.83 85.9042 109.944 85.8147 110.04C85.7252 110.136 85.6169 110.212 85.4965 110.265C85.3761 110.317 85.2463 110.344 85.115 110.344C84.9837 110.344 84.8539 110.317 84.7335 110.265C84.6131 110.212 84.5048 110.136 84.4153 110.04C84.3258 109.944 84.2569 109.83 84.2131 109.707C84.1693 109.583 84.1514 109.451 84.1605 109.321C84.1514 109.19 84.1693 109.058 84.2131 108.934C84.2569 108.811 84.3258 108.697 84.4153 108.601C84.5048 108.505 84.6131 108.429 84.7335 108.376C84.8539 108.324 84.9837 108.297 85.115 108.297C85.2463 108.297 85.3761 108.324 85.4965 108.376C85.6169 108.429 85.7252 108.505 85.8147 108.601C85.9042 108.697 85.9731 108.811 86.0169 108.934C86.0607 109.058 86.0786 109.19 86.0695 109.321Z" fill="#00707E"/>
<path d="M89.0286 109.334C89.0159 109.52 88.9491 109.699 88.8363 109.847C88.7236 109.996 88.5698 110.109 88.394 110.171C88.2182 110.233 88.028 110.243 87.8467 110.199C87.6655 110.154 87.5012 110.058 87.374 109.922C87.2468 109.785 87.1623 109.614 87.1309 109.43C87.0994 109.247 87.1225 109.057 87.1971 108.886C87.2717 108.716 87.3947 108.57 87.551 108.468C87.7072 108.366 87.8898 108.312 88.0764 108.313C88.338 108.322 88.5851 108.435 88.7636 108.627C88.9421 108.818 89.0373 109.073 89.0286 109.334Z" fill="#00707E"/>
<path d="M91.9875 109.348C91.9747 109.535 91.9072 109.714 91.7934 109.863C91.6795 110.012 91.5244 110.125 91.3473 110.186C91.1702 110.248 90.9788 110.256 90.7971 110.21C90.6153 110.164 90.4511 110.065 90.325 109.926C90.1988 109.788 90.1162 109.615 90.0875 109.429C90.0587 109.244 90.0851 109.054 90.1632 108.884C90.2414 108.713 90.3679 108.57 90.5271 108.471C90.6863 108.371 90.8711 108.321 91.0586 108.326C91.3161 108.342 91.5573 108.457 91.7308 108.648C91.9044 108.839 91.9965 109.09 91.9875 109.348Z" fill="#00707E"/>
<g opacity="0.2">
<path d="M68.3095 109.242C68.2958 109.428 68.2275 109.607 68.1132 109.756C67.9989 109.904 67.8435 110.016 67.6663 110.076C67.4892 110.137 67.298 110.145 67.1166 110.098C66.9352 110.051 66.7715 109.953 66.6458 109.814C66.5201 109.675 66.438 109.502 66.4095 109.317C66.3811 109.132 66.4076 108.942 66.4859 108.772C66.5641 108.602 66.6906 108.458 66.8496 108.359C67.0087 108.26 67.1933 108.21 67.3805 108.215C67.6393 108.23 67.8819 108.345 68.0558 108.538C68.2297 108.73 68.3209 108.983 68.3095 109.242Z" fill="white"/>
<path d="M71.2677 109.256C71.2769 109.387 71.259 109.518 71.2151 109.642C71.1713 109.766 71.1025 109.879 71.013 109.975C70.9234 110.071 70.8151 110.148 70.6947 110.2C70.5744 110.252 70.4445 110.279 70.3132 110.279C70.182 110.279 70.0521 110.252 69.9317 110.2C69.8114 110.148 69.703 110.071 69.6135 109.975C69.524 109.879 69.4552 109.766 69.4114 109.642C69.3675 109.518 69.3496 109.387 69.3588 109.256C69.3496 109.125 69.3675 108.993 69.4114 108.87C69.4552 108.746 69.524 108.633 69.6135 108.537C69.703 108.441 69.8114 108.364 69.9317 108.312C70.0521 108.259 70.182 108.232 70.3132 108.232C70.4445 108.232 70.5744 108.259 70.6947 108.312C70.8151 108.364 70.9234 108.441 71.013 108.537C71.1025 108.633 71.1713 108.746 71.2151 108.87C71.259 108.993 71.2769 109.125 71.2677 109.256Z" fill="white"/>
<path d="M74.2313 109.269C74.2176 109.456 74.1494 109.635 74.0351 109.783C73.9207 109.932 73.7654 110.043 73.5882 110.104C73.4111 110.165 73.2199 110.173 73.0385 110.126C72.8571 110.079 72.6934 109.98 72.5677 109.841C72.442 109.703 72.3598 109.53 72.3314 109.345C72.303 109.16 72.3295 108.97 72.4077 108.8C72.486 108.63 72.6125 108.486 72.7715 108.387C72.9306 108.288 73.1151 108.238 73.3024 108.243C73.5607 108.259 73.8027 108.375 73.9763 108.567C74.15 108.759 74.2415 109.011 74.2313 109.269Z" fill="white"/>
<path d="M77.1903 109.283C77.1766 109.47 77.1084 109.649 76.994 109.797C76.8797 109.946 76.7243 110.057 76.5472 110.118C76.37 110.179 76.1789 110.187 75.9975 110.14C75.8161 110.093 75.6524 109.994 75.5267 109.855C75.401 109.717 75.3188 109.544 75.2904 109.359C75.2619 109.173 75.2885 108.984 75.3667 108.814C75.445 108.644 75.5715 108.5 75.7305 108.401C75.8895 108.302 76.0741 108.252 76.2614 108.257C76.5197 108.273 76.7617 108.389 76.9353 108.581C77.109 108.773 77.2005 109.025 77.1903 109.283Z" fill="white"/>
<path d="M80.1487 109.293C80.1359 109.48 80.0683 109.659 79.9545 109.808C79.8407 109.957 79.6855 110.069 79.5084 110.131C79.3313 110.193 79.14 110.201 78.9582 110.155C78.7764 110.108 78.6123 110.01 78.4861 109.871C78.36 109.732 78.2774 109.559 78.2486 109.374C78.2199 109.189 78.2462 108.999 78.3244 108.829C78.4025 108.658 78.5291 108.514 78.6883 108.415C78.8474 108.316 79.0323 108.266 79.2197 108.271C79.4772 108.286 79.7185 108.402 79.892 108.593C80.0655 108.784 80.1576 109.035 80.1487 109.293Z" fill="white"/>
<path d="M83.1116 109.307C83.0989 109.493 83.0321 109.671 82.9193 109.82C82.8066 109.968 82.6529 110.081 82.477 110.143C82.3012 110.206 82.111 110.215 81.9297 110.171C81.7485 110.127 81.5842 110.03 81.457 109.894C81.3298 109.757 81.2453 109.587 81.2139 109.403C81.1824 109.219 81.2055 109.03 81.2801 108.859C81.3548 108.688 81.4778 108.542 81.634 108.44C81.7902 108.338 81.9729 108.284 82.1594 108.285C82.421 108.294 82.6681 108.407 82.8466 108.599C83.0251 108.79 83.1204 109.045 83.1116 109.307Z" fill="white"/>
<path d="M86.0704 109.321C86.0796 109.451 86.0617 109.583 86.0179 109.707C85.974 109.83 85.9052 109.944 85.8157 110.04C85.7262 110.136 85.6178 110.212 85.4975 110.265C85.3771 110.317 85.2472 110.344 85.116 110.344C84.9847 110.344 84.8548 110.317 84.7345 110.265C84.6141 110.212 84.5058 110.136 84.4163 110.04C84.3267 109.944 84.2579 109.83 84.2141 109.707C84.1703 109.583 84.1524 109.451 84.1615 109.321C84.1524 109.19 84.1703 109.058 84.2141 108.934C84.2579 108.811 84.3267 108.697 84.4163 108.601C84.5058 108.505 84.6141 108.429 84.7345 108.376C84.8548 108.324 84.9847 108.297 85.116 108.297C85.2472 108.297 85.3771 108.324 85.4975 108.376C85.6178 108.429 85.7262 108.505 85.8157 108.601C85.9052 108.697 85.974 108.811 86.0179 108.934C86.0617 109.058 86.0796 109.19 86.0704 109.321Z" fill="white"/>
<path d="M89.0286 109.334C89.0159 109.52 88.9491 109.699 88.8363 109.847C88.7236 109.996 88.5698 110.109 88.394 110.171C88.2182 110.233 88.028 110.243 87.8467 110.199C87.6655 110.154 87.5012 110.058 87.374 109.922C87.2468 109.785 87.1623 109.614 87.1309 109.43C87.0994 109.247 87.1225 109.057 87.1971 108.886C87.2717 108.716 87.3947 108.57 87.551 108.468C87.7072 108.366 87.8898 108.312 88.0764 108.313C88.338 108.322 88.5851 108.435 88.7636 108.627C88.9421 108.818 89.0373 109.073 89.0286 109.334Z" fill="white"/>
<path d="M91.9875 109.349C91.9747 109.536 91.9072 109.715 91.7934 109.864C91.6795 110.013 91.5244 110.125 91.3473 110.187C91.1702 110.249 90.9788 110.257 90.7971 110.21C90.6153 110.164 90.4511 110.066 90.325 109.927C90.1988 109.788 90.1162 109.615 90.0875 109.43C90.0587 109.245 90.0851 109.055 90.1632 108.884C90.2414 108.714 90.3679 108.57 90.5271 108.471C90.6863 108.372 90.8711 108.322 91.0586 108.327C91.3161 108.342 91.5573 108.458 91.7308 108.649C91.9044 108.84 91.9965 109.091 91.9875 109.349Z" fill="white"/>
</g>
<path d="M87.7841 42.298C88.1068 42.1559 88.3805 41.9221 88.5713 41.6256C88.762 41.3291 88.8614 40.9831 88.857 40.6306C88.8691 40.4014 88.8343 40.1722 88.7549 39.9569C88.6755 39.7416 88.553 39.5447 88.3951 39.3782C88.2371 39.2118 88.0469 39.0792 87.8361 38.9886C87.6253 38.898 87.3982 38.8513 87.1687 38.8513C86.9392 38.8513 86.7121 38.898 86.5013 38.9886C86.2905 39.0792 86.1003 39.2118 85.9423 39.3782C85.7843 39.5447 85.6619 39.7416 85.5825 39.9569C85.5031 40.1722 85.4684 40.4014 85.4804 40.6306C85.4733 40.9866 85.5719 41.3368 85.7636 41.6369C85.9554 41.9369 86.2318 42.1735 86.5579 42.3166C83.9569 42.7067 84.073 45.5307 84.073 45.5307L90.2226 45.5585C90.2226 45.5585 90.3665 42.6835 87.7841 42.298Z" fill="#00707E"/>
<path opacity="0.1" d="M87.7841 42.298C88.1068 42.1559 88.3805 41.9221 88.5713 41.6256C88.762 41.3291 88.8614 40.9831 88.857 40.6306C88.8691 40.4014 88.8343 40.1722 88.7549 39.9569C88.6755 39.7416 88.553 39.5447 88.3951 39.3782C88.2371 39.2118 88.0469 39.0792 87.8361 38.9886C87.6253 38.898 87.3982 38.8513 87.1687 38.8513C86.9392 38.8513 86.7121 38.898 86.5013 38.9886C86.2905 39.0792 86.1003 39.2118 85.9423 39.3782C85.7843 39.5447 85.6619 39.7416 85.5825 39.9569C85.5031 40.1722 85.4684 40.4014 85.4804 40.6306C85.4733 40.9866 85.5719 41.3368 85.7636 41.6369C85.9554 41.9369 86.2318 42.1735 86.5579 42.3166C83.9569 42.7067 84.073 45.5307 84.073 45.5307L90.2226 45.5585C90.2226 45.5585 90.3665 42.6835 87.7841 42.298Z" fill="black"/>
<path d="M97.7763 47.3802L75.8584 47.2808L75.8465 49.9003L97.7644 49.9998L97.7763 47.3802Z" fill="#00707E"/>
<path opacity="0.2" d="M97.7763 47.3802L75.8584 47.2808L75.8465 49.9003L97.7644 49.9998L97.7763 47.3802Z" fill="white"/>
<path d="M17.1994 60.9558H16.9811L16.3494 61.0023C16.0076 61.0228 15.6676 61.0678 15.3322 61.137C15.115 61.1675 14.8995 61.2093 14.6866 61.2624L13.9667 61.4621C12.7414 61.838 11.5853 62.4106 10.5436 63.1574C9.16734 64.1564 8.01814 65.4354 7.17159 66.9103C6.67402 67.7605 6.27806 68.6662 5.99185 69.6088C5.6911 70.6333 5.51795 71.691 5.4763 72.7579C5.44861 73.3184 5.45792 73.88 5.50416 74.4393C5.50416 74.7226 5.58312 75.0059 5.62028 75.2939C5.65153 75.5842 5.70589 75.8715 5.78284 76.1531C6.2005 78.0169 7.04794 79.7573 8.25756 81.2355C9.46718 82.7136 11.0055 83.8887 12.7498 84.6668C14.0123 85.2115 15.3654 85.5156 16.7396 85.5632C18.1589 85.6413 19.5795 85.4376 20.9198 84.9641L21.3285 84.8108H21.3842L21.4307 84.8386L27.2876 87.8112L27.1157 87.9599C26.4887 86.0184 25.8849 84.1373 25.2997 82.3305V82.2609L25.3508 82.2098C26.7716 80.7787 27.8263 79.0261 28.4255 77.1007C28.9683 75.3403 29.1266 73.484 28.89 71.6571C28.6795 70.0336 28.1575 68.466 27.3526 67.0403C26.6588 65.8157 25.7638 64.7166 24.7052 63.7891C23.8317 63.055 22.865 62.4396 21.8301 61.9591C21.0471 61.6214 20.2316 61.3646 19.3963 61.1927L18.4674 61.0394L17.7939 60.9884L17.3852 60.9605H17.2458C17.2921 60.9554 17.3389 60.9554 17.3852 60.9605H17.7986L18.472 60.9884L19.401 61.1231C20.2466 61.2823 21.0732 61.5299 21.8673 61.8616C22.9199 62.3364 23.9041 62.9503 24.7934 63.6869C25.8715 64.6103 26.7855 65.7096 27.4966 66.9382C28.3243 68.3791 28.8623 69.968 29.0804 71.6153C29.3367 73.4704 29.1894 75.3589 28.6485 77.1517C28.0453 79.1173 26.9743 80.9071 25.5273 82.3677L25.5551 82.2469C26.1404 84.0537 26.7488 85.9348 27.3805 87.8716L27.4687 88.1549L27.204 88.0202L21.3471 85.0523H21.4492L21.0312 85.2056C19.6652 85.6863 18.2182 85.8945 16.7721 85.8187C15.3683 85.7652 13.9869 85.4502 12.6987 84.8897C10.2416 83.8374 8.19723 82.0084 6.87898 79.6831C6.27235 78.6091 5.82932 77.4507 5.56454 76.246C5.49203 75.9571 5.43774 75.6639 5.40198 75.3682C5.36482 75.0756 5.30444 74.7876 5.29051 74.4996C5.1648 72.847 5.33948 71.1853 5.80607 69.5949C6.0994 68.6393 6.5064 67.7224 7.01832 66.8638C7.88507 65.3755 9.0582 64.0884 10.46 63.0877C11.5188 62.339 12.6943 61.7709 13.9388 61.4064L14.6681 61.2206C14.8827 61.1708 15.0997 61.1321 15.3183 61.1045C15.6572 61.0417 16.0003 61.0045 16.3448 60.993L16.9811 60.9698C17.0534 60.96 17.1264 60.9554 17.1994 60.9558Z" fill="#00707E"/>
<path d="M19.8467 71.7875H18.9874L17.1296 69.1772V67.4633C17.1296 67.4633 15.8012 67.3797 15.9591 69.6231C16.117 71.8664 15.9591 71.2951 15.9591 71.2951C15.9591 71.2951 13.1398 71.2951 12.9076 71.5506C12.6753 71.806 12.6614 74.5278 12.6289 76.0466C12.6111 76.4127 12.7162 76.7743 12.9274 77.0739C13.1386 77.3735 13.4439 77.5939 13.7947 77.7001C13.893 77.7273 13.9946 77.7414 14.0966 77.7419C14.8026 77.7419 18.3929 77.1706 18.3929 77.1706H19.8745L19.8467 71.7875Z" fill="#00707E"/>
<path d="M22.3038 71.3271L21.7744 77.198H20.3066V71.4479L22.3038 71.3271Z" fill="#00707E"/>
<path d="M39.8095 190.848V186.877L32.6893 186.826L32.6289 192.831L33.0701 192.864C35.0348 192.989 43.0654 193.175 44.3845 192.766C45.8522 192.311 39.8095 190.848 39.8095 190.848Z" fill="#00707E"/>
<path d="M44.5519 192.395C44.5519 192.46 41.8859 192.516 38.6021 192.516C35.3184 192.516 32.6523 192.46 32.6523 192.395C32.6523 192.33 35.3184 192.274 38.6021 192.274C41.8859 192.274 44.5519 192.33 44.5519 192.395Z" fill="#263238"/>
<path d="M39.9344 191.661C39.874 191.629 39.9344 191.42 40.0784 191.197C40.2224 190.974 40.4174 190.881 40.4639 190.927C40.5103 190.974 40.4128 191.15 40.2735 191.341C40.1341 191.531 39.9948 191.694 39.9344 191.661Z" fill="#263238"/>
<path d="M40.3896 191.921C40.3246 191.921 40.3571 191.661 40.4964 191.415C40.6358 191.169 40.8216 191.02 40.8726 191.057C40.9237 191.095 40.8401 191.304 40.7101 191.522C40.58 191.74 40.45 191.945 40.3896 191.921Z" fill="#263238"/>
<path d="M34.7981 192.376C34.7702 192.376 34.6634 192.293 34.5101 192.116C34.323 191.889 34.1146 191.681 33.8877 191.494C33.6646 191.316 33.3988 191.199 33.1167 191.155C32.8984 191.127 32.7591 191.155 32.7451 191.127C32.7312 191.099 32.8659 191.002 33.1213 190.983C33.4585 190.976 33.7873 191.088 34.0503 191.299C34.2966 191.5 34.5044 191.744 34.6634 192.019C34.7702 192.223 34.8259 192.358 34.7981 192.376Z" fill="#263238"/>
<path d="M39.9583 190.913C39.9909 190.969 39.8701 191.109 39.6657 191.183C39.4614 191.257 39.2802 191.229 39.2709 191.183C39.2616 191.136 39.4056 191.039 39.5821 190.974C39.7586 190.909 39.9212 190.858 39.9583 190.913Z" fill="#263238"/>
<path d="M39.8459 190.528C39.8459 190.598 39.6601 190.654 39.4186 190.658C39.1771 190.663 38.9866 190.607 38.9913 190.542C38.9959 190.477 39.1864 190.417 39.4186 190.412C39.6508 190.407 39.8366 190.463 39.8459 190.528Z" fill="#263238"/>
<path d="M57.3427 190.848V186.877L50.2225 186.826L50.1621 192.771L50.6033 192.804C52.568 192.929 60.6033 193.175 61.9177 192.766C63.3854 192.311 57.3427 190.848 57.3427 190.848Z" fill="#00707E"/>
<path d="M62.0844 192.404C62.0844 192.469 59.423 192.525 56.1346 192.525C52.8462 192.525 50.1895 192.469 50.1895 192.404C50.1895 192.339 52.8508 192.284 56.1346 192.284C59.4184 192.284 62.0844 192.339 62.0844 192.404Z" fill="#263238"/>
<path d="M57.4685 191.661C57.4128 191.629 57.4685 191.42 57.6125 191.197C57.7565 190.974 57.9516 190.881 57.998 190.927C58.0445 190.974 57.9469 191.15 57.8076 191.341C57.6683 191.531 57.5289 191.694 57.4685 191.661Z" fill="#263238"/>
<path d="M57.9235 191.921C57.8631 191.921 57.891 191.661 58.035 191.415C58.179 191.169 58.3601 191.02 58.4112 191.057C58.4623 191.095 58.374 191.304 58.244 191.522C58.1139 191.74 57.9885 191.945 57.9235 191.921Z" fill="#263238"/>
<path d="M52.3313 192.376C52.3034 192.376 52.2012 192.293 52.0433 192.116C51.8562 191.889 51.6478 191.681 51.4209 191.494C51.1978 191.316 50.932 191.199 50.6499 191.155C50.4362 191.127 50.2923 191.155 50.2783 191.127C50.2644 191.099 50.3991 191.002 50.6545 190.983C50.9917 190.976 51.3205 191.088 51.5835 191.299C51.8311 191.498 52.0391 191.743 52.1966 192.019C52.3034 192.223 52.3591 192.358 52.3313 192.376Z" fill="#263238"/>
<path d="M57.4915 190.913C57.5241 190.969 57.4033 191.109 57.1989 191.183C56.9946 191.257 56.8134 191.229 56.8041 191.183C56.7948 191.136 56.9388 191.039 57.1153 190.974C57.2918 190.909 57.4544 190.858 57.4915 190.913Z" fill="#263238"/>
<path d="M57.3901 190.528C57.3901 190.598 57.2043 190.654 56.9628 190.658C56.7213 190.663 56.5355 190.607 56.5401 190.542C56.5448 190.477 56.7306 190.417 56.9628 190.412C57.195 190.407 57.3901 190.463 57.3901 190.528Z" fill="#263238"/>
<path d="M83.5757 72.9209C83.3899 72.7305 82.9301 72.8234 82.9301 72.8234C82.9762 72.5559 82.9762 72.2826 82.9301 72.0152C82.8465 71.7551 82.2613 71.8062 82.2613 71.8062C82.2343 71.5872 82.2343 71.3657 82.2613 71.1466C82.2659 71.0981 82.2555 71.0493 82.2314 71.0069C82.2073 70.9645 82.1707 70.9306 82.1266 70.9098C81.8497 70.7969 81.5523 70.7431 81.2534 70.7518C80.8957 70.4964 82.3449 68.4667 82.8837 67.8164C83.4224 67.1662 83.3249 66.6599 82.8465 66.6599C82.5167 66.6599 80.8261 68.6107 80.3059 69.2656C79.7857 69.9205 78.4062 71.7412 78.3597 70.2874C78.3133 68.8336 77.7281 67.7375 77.3611 67.5517C76.9942 67.3659 76.6041 67.8025 76.8038 68.2066C76.9793 68.6657 77.0887 69.1473 77.1289 69.6371C77.1794 70.0273 77.1621 70.4233 77.0778 70.8076C76.9238 71.5226 76.7142 72.2246 76.4508 72.907H76.4136C76.4136 72.907 66.279 82.6282 65.5452 83.3203C64.8903 83.9427 51.718 82.5818 49.0752 82.3031C48.1772 82.1717 47.2703 82.1096 46.3627 82.1173C45.2155 82.1684 45.0111 82.331 43.8686 82.3449C40.983 82.3769 38.1042 82.63 35.2574 83.102C33.9683 83.3211 32.7642 83.8901 31.7764 84.7469C30.7887 85.6036 30.0551 86.7152 29.6559 87.9603C26.9945 96.2742 20.9658 115.954 19.9022 127.008C19.0984 128.465 18.3728 129.965 17.7285 131.499C16.9807 133.534 17.1618 133.603 17.4126 133.65C18.0907 133.775 18.8618 130.124 19.1497 131.007C19.4377 131.889 17.6867 135.359 18.3973 135.461C19.3262 135.591 20.0647 131.745 20.153 131.439C20.2412 131.132 20.701 131.23 20.6174 131.518C20.4827 131.927 19.1776 136.26 20.088 136.399C20.5896 136.474 20.6453 135.559 20.6453 135.559C20.6453 135.559 21.5742 131.411 21.9969 131.495C22.4196 131.578 21.969 134.026 21.7554 134.843C21.5417 135.661 21.839 136.074 22.2756 135.875C22.5728 135.735 23.2835 133.25 23.4785 132.442C23.6736 131.634 24.1613 129.395 24.8162 130.691C25.4711 131.987 26.4651 132.739 26.8738 132.758C26.9659 132.747 27.0527 132.709 27.1231 132.649C27.1934 132.589 27.2441 132.509 27.2686 132.419C27.293 132.33 27.2902 132.235 27.2604 132.147C27.2306 132.059 27.1752 131.983 27.1014 131.927C26.7498 131.583 26.4481 131.192 26.205 130.765C25.9883 130.433 25.8311 130.065 25.7405 129.679C25.5533 128.908 25.4444 128.121 25.4154 127.328L25.3411 126.864C26.3815 121.713 29.3773 106.595 33.7014 96.9384L35.4757 100.589L36.2467 103.292L31.5184 114.964L51.6855 114.7L48.6758 103.116L52.3311 91.0397C56.2837 91.1279 66.4323 91.2766 68.1229 90.5102C70.2502 89.5813 81.2534 75.6845 81.2534 75.6845C81.9706 75.1271 82.6574 74.5318 83.3109 73.9009C83.3109 73.9009 83.9798 73.3389 83.5757 72.9209Z" fill="#D2D5D5"/>
<path d="M30.6311 106.339C31.2164 104.342 34.2214 94.4673 34.2214 94.4673C34.2214 94.4673 35.6985 102.517 35.3083 103.487C34.9494 104.318 34.5254 105.12 34.0403 105.884C30.6311 111.072 31.077 113.668 31.077 113.668L51.6761 113.041C51.7225 110.162 50.0179 103.464 49.6649 102.396C49.3119 101.327 50.487 97.8301 50.487 97.8301C50.487 97.8301 52.8094 95.4659 52.7257 94.249C52.6816 93.1559 52.5465 92.0684 52.3217 90.9978L64.8622 91.4622L64.4674 82.9625L46.4555 81.1604C45.8284 82.93 40.1573 82.0615 40.1573 82.0615C34.0357 82.2658 33.6548 83.3898 31.1095 85.3685C28.5643 87.3471 24.3516 104.328 24.3516 104.328L30.6311 106.339Z" fill="#00707E"/>
<path d="M42.81 104.328C42.453 104.392 42.0894 104.41 41.7278 104.384C41.0543 104.384 40.13 104.337 39.1128 104.235C38.0957 104.133 37.176 103.989 36.5211 103.859C36.16 103.812 35.806 103.722 35.4668 103.589C35.8299 103.589 36.1923 103.624 36.549 103.692C37.2085 103.775 38.1235 103.891 39.1361 103.993C40.1486 104.096 41.0682 104.165 41.7324 104.212C42.0945 104.216 42.4553 104.255 42.81 104.328Z" fill="#263238"/>
<path d="M44.2215 102.577C43.8644 102.752 43.4867 102.881 43.0975 102.962C41.2444 103.449 39.3326 103.676 37.417 103.636C37.0207 103.649 36.6243 103.611 36.2373 103.524C36.6285 103.475 37.0228 103.455 37.417 103.464C38.1463 103.441 39.1495 103.389 40.2549 103.259C41.3604 103.129 42.345 102.944 43.0417 102.795C43.4287 102.692 43.8231 102.619 44.2215 102.577Z" fill="#263238"/>
<path d="M51.1521 94.7644C51.1427 95.1185 51.0944 95.4705 51.0081 95.8141C50.8874 96.4597 50.7016 97.3422 50.4647 98.3083C50.2278 99.2744 50.0002 100.166 49.7959 100.77C49.7137 101.116 49.5921 101.451 49.4336 101.769C49.4595 101.416 49.5249 101.067 49.6287 100.728C49.8052 100.004 50.0049 99.1675 50.2278 98.2525C50.4508 97.3375 50.6644 96.5015 50.8409 95.7769C50.9038 95.4282 51.0083 95.0883 51.1521 94.7644Z" fill="#263238"/>
<path d="M30.8496 105.155C29.7751 104.989 28.7147 104.742 27.6773 104.416C26.6174 104.168 25.5772 103.842 24.5654 103.441C25.6394 103.609 26.6997 103.856 27.7377 104.179C28.7979 104.426 29.8381 104.752 30.8496 105.155Z" fill="#263238"/>
<path d="M52.5447 90.8956C52.3695 90.9257 52.1904 90.9257 52.0152 90.8956C51.5301 90.8458 51.0537 90.7318 50.5986 90.5565C49.8388 90.271 49.1471 89.8297 48.568 89.261C47.9888 88.6922 47.5351 88.0087 47.2359 87.2541C46.9051 86.4241 46.7639 85.5308 46.8225 84.6392C46.8432 83.9038 47.0631 83.1879 47.4588 82.5677C47.7371 82.1499 48.1528 81.8426 48.6339 81.6991C48.7625 81.6637 48.8954 81.6465 49.0287 81.648C49.1216 81.648 49.168 81.648 49.168 81.648C49.168 81.648 48.973 81.6481 48.6618 81.7735C48.2204 81.9365 47.8461 82.2422 47.5981 82.642C46.9665 83.636 46.79 85.452 47.4635 87.1473C47.7769 87.9467 48.2676 88.6645 48.8986 89.2467C49.4157 89.7231 50.0113 90.1065 50.659 90.38C51.2668 90.6202 51.8992 90.7931 52.5447 90.8956Z" fill="#263238"/>
<path d="M63.3713 91.295C63.2551 89.8706 63.2179 88.441 63.2598 87.0126C63.2234 85.5854 63.2669 84.1572 63.3899 82.7349C63.5062 84.1576 63.5434 85.5857 63.5014 87.0126C63.5404 88.4414 63.497 89.8712 63.3713 91.295Z" fill="#263238"/>
<path d="M46.3353 81.6806C46.3864 80.6449 46.4932 79.4744 46.4932 79.4744C46.4932 79.4744 49.0571 79.1911 49.2104 76.5436C49.3636 73.8962 49.2104 67.7885 49.2104 67.7885L44.5657 65.4104L39.4102 69.4652L40.2044 82.7024L44.9326 83.0043C45.2941 83.0143 45.6447 82.8806 45.9077 82.6325C46.1706 82.3843 46.3244 82.042 46.3353 81.6806Z" fill="#D2D5D5"/>
<path d="M46.7946 74.4488C46.7946 74.4488 46.7946 74.4999 46.7528 74.5602C46.7182 74.604 46.6735 74.6388 46.6225 74.6614C46.5716 74.6841 46.5158 74.694 46.4602 74.6903C46.1629 74.6903 45.8749 74.3466 45.7728 73.9471C45.7242 73.7535 45.7242 73.5509 45.7728 73.3573C45.7823 73.2728 45.8128 73.192 45.8614 73.1222C45.9101 73.0525 45.9754 72.996 46.0514 72.9578C46.1139 72.932 46.184 72.932 46.2465 72.9578C46.2928 72.9808 46.3303 73.0183 46.3533 73.0647C46.3858 73.1436 46.3533 73.1947 46.3533 73.1901C46.3533 73.1854 46.3533 73.1436 46.3069 73.0972C46.2826 73.0639 46.2469 73.0408 46.2066 73.0322C46.1663 73.0236 46.1243 73.0302 46.0886 73.0507C46.0316 73.0852 45.9843 73.1335 45.951 73.1911C45.9177 73.2488 45.8995 73.3139 45.8982 73.3805C45.8591 73.5533 45.8591 73.7326 45.8982 73.9053C45.991 74.2676 46.2419 74.5602 46.4648 74.5881C46.5084 74.594 46.5528 74.5909 46.5951 74.5789C46.6375 74.5669 46.6769 74.5463 46.711 74.5184C46.7667 74.4813 46.7853 74.4441 46.7946 74.4488Z" fill="#EB996E"/>
<path d="M50.8034 66.3579C50.4457 65.141 49.1499 64.5372 47.9701 64.2028C46.1727 63.6919 44.2312 63.4689 42.4755 64.1145C40.7198 64.7601 38.6112 65.8934 38.6112 67.8303C37.5754 67.7467 36.9809 68.6524 36.5722 69.7764C36.3108 70.4612 36.1543 71.1814 36.1077 71.9129C35.9776 74.4489 35.267 77.951 33.6228 79.8088C32.6939 80.8446 31.4073 81.5599 30.8778 82.8511C30.4134 83.9704 30.6549 85.2988 30.2229 86.4321C29.8374 87.4307 28.9874 88.1413 28.3651 89.0099C27.731 89.9952 27.3578 91.1255 27.2806 92.2947C27.2035 93.4638 27.4248 94.6334 27.9238 95.6935C28.4264 96.7265 29.1341 97.6462 30.0037 98.3968C30.8733 99.1474 31.8866 99.7132 32.9818 100.059C35.1514 100.72 37.4649 100.742 39.6469 100.125C41.2845 99.7329 42.8121 98.9755 44.1151 97.909C45.4483 96.8203 46.3639 95.3041 46.7068 93.6174C47.0366 91.7223 46.5071 89.7948 46.1123 87.9091C44.8768 81.95 45.2298 81.6388 46.7904 76.107C46.8275 76.0095 46.8461 75.9073 46.874 75.8098C46.9019 75.7122 46.9158 75.6658 46.9344 75.5915C46.9787 75.3728 47.002 75.1504 47.004 74.9273C46.7761 75.0121 46.5287 75.03 46.2909 74.979C46.0531 74.928 45.8349 74.8101 45.6617 74.6393C45.4882 74.4572 45.3673 74.2315 45.3116 73.9862C45.256 73.7409 45.2679 73.4851 45.3459 73.2459C45.4555 72.9844 45.6188 72.7488 45.8252 72.5543C46.0316 72.3599 46.2766 72.211 46.5442 72.1173C47.0598 71.9036 47.6125 71.7921 48.1188 71.5553C49.1917 71.0444 49.9348 69.9854 50.4411 68.8753C50.8573 68.1059 50.9858 67.2134 50.8034 66.3579Z" fill="#00434C"/>
<path d="M46.9811 74.5745C47.0792 74.7195 47.1603 74.8753 47.2226 75.0389C47.362 75.3315 47.5477 75.7449 47.7521 76.2233L47.7893 76.3116H47.6917L47.2273 76.3534C46.9068 76.3534 46.6374 76.4137 46.3216 76.4091C46.2941 76.4029 46.2686 76.3899 46.2475 76.3712C46.2263 76.3525 46.2103 76.3288 46.2008 76.3023C46.187 76.26 46.187 76.2145 46.2008 76.1722C46.2116 76.1096 46.2255 76.0476 46.2426 75.9864L46.3262 75.6567C46.3682 75.4367 46.4336 75.2218 46.5213 75.0157C46.5126 75.24 46.4799 75.4626 46.4237 75.6799L46.3587 76.0097C46.3355 76.1211 46.2937 76.293 46.3587 76.279C46.591 76.279 46.9207 76.228 47.2273 76.2094L47.6917 76.1676L47.6314 76.2698C47.4316 75.8053 47.2644 75.3687 47.1669 75.0668C47.0813 74.9126 47.0187 74.7467 46.9811 74.5745Z" fill="#00707E"/>
<path d="M31.0772 113.668L51.6762 113.041L60.6404 148.034L58.9916 188.173H48.0999L49.4329 148.889L41.4673 124.527L42.6935 189.729L31.6857 189.892L30.5291 128.605C30.4781 126.901 29.9207 123.06 30.1297 121.369L31.0772 113.668Z" fill="#C2D2D4"/>
<path d="M44.2074 125.024C43.8702 125.046 43.5317 125.025 43.1995 124.964C42.5771 124.89 41.7271 124.76 40.7936 124.574C39.86 124.388 39.0239 124.174 38.4201 124.003C38.0974 123.932 37.7851 123.819 37.4912 123.668C37.4912 123.598 39.0054 123.961 40.8632 124.337C42.7211 124.713 44.2167 124.955 44.2074 125.024Z" fill="#455A64"/>
<path d="M58.8802 185.972C58.8802 186.037 56.4139 186.092 53.3716 186.092C50.3294 186.092 47.8584 186.037 47.8584 185.972C47.8584 185.907 50.3247 185.851 53.3716 185.851C56.4185 185.851 58.8802 185.902 58.8802 185.972Z" fill="#455A64"/>
<path d="M42.596 188.034C42.596 188.103 40.1994 188.154 37.2454 188.154C34.2914 188.154 31.8994 188.103 31.8994 188.034C31.8994 187.964 34.2961 187.913 37.2454 187.913C40.1948 187.913 42.596 187.969 42.596 188.034Z" fill="#455A64"/>
<path d="M41.175 187.867C41.11 187.867 40.822 173.621 40.5294 156.051C40.2368 138.48 40.0649 124.226 40.1253 124.226C40.1857 124.226 40.483 138.466 40.7709 156.046C41.0589 173.626 41.2447 187.867 41.175 187.867Z" fill="#455A64"/>
<path d="M57.417 185.971C57.4119 185.908 57.4119 185.844 57.417 185.781V185.224C57.417 184.722 57.4542 184.002 57.4821 183.087C57.5471 181.229 57.64 178.531 57.7561 175.224C58.0069 168.573 58.3599 159.404 58.7454 149.283C58.7454 149.186 58.7454 149.093 58.7454 149.009V149.042C56.307 139.288 54.1007 130.435 52.4983 124.03L50.6405 116.455C50.4268 115.568 50.2643 114.876 50.1482 114.393C50.0924 114.165 50.0553 113.989 50.0227 113.854C50.0046 113.794 49.9937 113.731 49.9902 113.668C50.0144 113.727 50.033 113.787 50.046 113.849C50.0831 113.979 50.1296 114.156 50.1946 114.379C50.32 114.843 50.5011 115.549 50.7334 116.432C51.1978 118.225 51.8527 120.807 52.6702 123.989C54.2865 130.389 56.516 139.218 58.9869 148.986V149.019C58.9869 149.102 58.9869 149.2 58.9869 149.293C58.5735 159.413 58.1973 168.577 57.9233 175.228C57.7793 178.54 57.6585 181.22 57.5749 183.087C57.5285 184.016 57.4913 184.722 57.4681 185.224C57.4681 185.461 57.4403 185.646 57.4356 185.781C57.4363 185.845 57.4301 185.909 57.417 185.971Z" fill="#455A64"/>
<path d="M53.8645 148.192C53.0822 148.449 52.2763 148.628 51.4586 148.726C50.4553 148.898 49.6007 149.019 49.2152 149.037V148.944C49.3406 148.981 49.4057 149.005 49.4057 149.023C49.4057 149.042 49.3267 149.023 49.1967 149.023H48.918L49.1967 148.94C49.5589 148.833 50.4135 148.656 51.4168 148.475C52.2214 148.301 53.0413 148.206 53.8645 148.192Z" fill="#455A64"/>
<path d="M53.6735 149.525C52.9491 149.558 52.2231 149.525 51.5045 149.427C50.779 149.412 50.0562 149.333 49.3447 149.19C50.7963 149.072 52.2574 149.185 53.6735 149.525Z" fill="#455A64"/>
<path opacity="0.2" d="M30.9893 114.407C31.2332 114.72 31.5405 114.978 31.891 115.165C32.2416 115.351 32.6275 115.462 33.0236 115.489C33.8532 115.587 34.6924 115.572 35.5178 115.443C40.8359 114.853 46.4699 114.309 51.6765 113.041C44.9371 113.417 37.8169 113.292 31.0775 113.668L31.0078 114.244" fill="black"/>
<g opacity="0.2">
<path d="M37.9326 123.905L41.7319 138.647L41.4672 124.527L37.9326 123.905Z" fill="black"/>
</g>
</svg>
